<svg width="559" height="480" viewBox="0 0 559 480" fill="none" xmlns="http://www.w3.org/2000/svg">
<path d="M134.205 120.181C134.274 120.692 134.189 121.211 133.963 121.674C133.736 122.136 133.378 122.521 132.934 122.78C132.489 123.038 131.978 123.159 131.464 123.127C130.951 123.094 130.459 122.91 130.05 122.597C129.642 122.285 129.335 121.858 129.168 121.37C129.001 120.883 128.983 120.357 129.115 119.859C129.246 119.361 129.523 118.914 129.908 118.573C130.294 118.232 130.772 118.014 131.281 117.945C131.965 117.856 132.655 118.041 133.203 118.46C133.751 118.879 134.111 119.497 134.205 120.181Z" fill="#5DBD6D"/>
<path d="M223.943 220.89C223.965 221.06 223.954 221.232 223.909 221.397C223.865 221.562 223.788 221.717 223.684 221.852C223.58 221.988 223.45 222.102 223.302 222.187C223.154 222.272 222.991 222.327 222.822 222.349C222.652 222.371 222.48 222.36 222.316 222.315C222.151 222.271 221.996 222.194 221.861 222.09C221.726 221.985 221.613 221.855 221.528 221.707C221.442 221.559 221.387 221.395 221.365 221.226C221.321 220.883 221.414 220.537 221.624 220.263C221.835 219.99 222.145 219.811 222.487 219.767C222.829 219.722 223.174 219.816 223.447 220.026C223.721 220.237 223.899 220.548 223.943 220.89Z" fill="#5DBD6D"/>
<path d="M178.232 73.4824C178.267 73.7391 178.226 74.0006 178.113 74.2336C178 74.4667 177.82 74.6608 177.596 74.7914C177.373 74.922 177.116 74.9831 176.858 74.9671C176.599 74.951 176.352 74.8585 176.146 74.7013C175.941 74.544 175.786 74.3291 175.703 74.0839C175.619 73.8386 175.61 73.574 175.677 73.3236C175.744 73.0733 175.884 72.8484 176.078 72.6777C176.273 72.5069 176.513 72.3979 176.77 72.3644C177.112 72.3199 177.457 72.4124 177.731 72.6218C178.005 72.8312 178.185 73.1405 178.232 73.4824Z" fill="#5DBD6D"/>
<path d="M339.728 44.2242C339.772 44.5667 339.679 44.9128 339.469 45.1864C339.258 45.46 338.948 45.6387 338.606 45.6832C338.265 45.7277 337.919 45.6343 337.646 45.4236C337.373 45.2129 337.194 44.9021 337.15 44.5596C337.106 44.2172 337.199 43.871 337.409 43.5974C337.619 43.3238 337.93 43.1451 338.272 43.1006C338.613 43.0562 338.959 43.1495 339.232 43.3603C339.505 43.571 339.684 43.8818 339.728 44.2242Z" fill="#263238"/>
<path d="M192.963 143.312C193.003 143.489 193.006 143.673 192.971 143.851C192.936 144.029 192.865 144.198 192.762 144.348C192.658 144.497 192.525 144.623 192.37 144.717C192.216 144.812 192.043 144.873 191.863 144.897C191.684 144.922 191.501 144.908 191.327 144.858C191.153 144.807 190.991 144.721 190.852 144.604C190.713 144.488 190.599 144.344 190.519 144.181C190.439 144.018 190.393 143.84 190.385 143.659C190.371 143.332 190.479 143.012 190.688 142.762C190.897 142.511 191.193 142.348 191.516 142.305C191.839 142.261 192.167 142.34 192.435 142.527C192.703 142.713 192.891 142.994 192.963 143.312Z" fill="#263238"/>
<path d="M312.687 260.379C312.709 260.548 312.698 260.72 312.653 260.885C312.609 261.051 312.532 261.205 312.428 261.341C312.324 261.476 312.194 261.59 312.046 261.675C311.898 261.76 311.735 261.815 311.566 261.837C311.397 261.86 311.225 261.848 311.06 261.803C310.895 261.759 310.741 261.682 310.605 261.578C310.47 261.474 310.357 261.344 310.272 261.195C310.187 261.047 310.131 260.883 310.109 260.714C310.065 260.371 310.158 260.025 310.369 259.752C310.579 259.478 310.889 259.299 311.231 259.255C311.573 259.21 311.918 259.304 312.192 259.515C312.465 259.725 312.643 260.036 312.687 260.379Z" fill="#455A64"/>
<path d="M128.302 267.903C128.335 268.157 128.292 268.416 128.179 268.645C128.065 268.875 127.886 269.066 127.664 269.194C127.442 269.323 127.188 269.382 126.932 269.365C126.677 269.348 126.432 269.255 126.229 269.099C126.026 268.942 125.874 268.729 125.792 268.486C125.71 268.243 125.702 267.981 125.768 267.733C125.835 267.486 125.973 267.263 126.166 267.094C126.359 266.926 126.597 266.818 126.851 266.785C127.02 266.761 127.192 266.772 127.356 266.815C127.521 266.859 127.675 266.935 127.81 267.039C127.945 267.143 128.058 267.273 128.143 267.421C128.227 267.57 128.281 267.733 128.302 267.903Z" fill="#5DBD6D"/>
<path d="M5.17756 265.261C5.2458 265.771 5.1614 266.291 4.93501 266.753C4.70863 267.216 4.35044 267.601 3.90571 267.859C3.46099 268.118 2.94971 268.238 2.43651 268.206C1.92331 268.174 1.43124 267.989 1.0225 267.677C0.613759 267.364 0.306705 266.937 0.14016 266.45C-0.0263858 265.963 -0.0449456 265.437 0.0868253 264.939C0.218596 264.441 0.494786 263.993 0.88047 263.652C1.26615 263.312 1.74402 263.093 2.25365 263.025C2.59242 262.977 2.93715 262.998 3.26794 263.085C3.59873 263.172 3.90902 263.324 4.18089 263.532C4.45276 263.74 4.68082 264 4.85189 264.296C5.02295 264.593 5.13364 264.921 5.17756 265.261Z" fill="#5DBD6D"/>
<path d="M247.58 44.0453C247.648 44.5559 247.564 45.0753 247.337 45.5378C247.111 46.0004 246.753 46.3853 246.308 46.6439C245.863 46.9025 245.352 47.0232 244.839 46.9908C244.326 46.9583 243.834 46.7742 243.425 46.4616C243.016 46.149 242.709 45.7221 242.543 45.2347C242.376 44.7473 242.357 44.2214 242.489 43.7235C242.621 43.2255 242.897 42.7779 243.283 42.4372C243.668 42.0965 244.146 41.878 244.656 41.8093C244.995 41.7637 245.339 41.7854 245.669 41.8731C245.999 41.9607 246.309 42.1128 246.58 42.3204C246.852 42.5281 247.08 42.7873 247.251 43.0832C247.423 43.3792 247.535 43.7061 247.58 44.0453Z" fill="#5DBD6D"/>
<path d="M424.346 308L429 306.512C429 306.512 425.827 304.956 425.827 300.116C425.827 295.275 430.185 293.411 428.309 289L423.119 290.341C423.703 291.492 424.026 292.747 424.067 294.024C424.108 295.301 423.867 296.573 423.359 297.756C422.034 300.518 420.736 303.83 424.346 308Z" fill="#5DBD6D"/>
<path d="M79.9998 39.0982L74.3765 36.9999C74.3765 36.9999 76.0805 41.0566 72.2295 45.9525C68.3784 50.8484 62.7381 49.4496 61 55.2722L66.9129 57.9999C67.2871 56.3768 67.9903 54.8528 68.9768 53.5272C69.9633 52.2016 71.211 51.1041 72.6384 50.3064C76.2339 48.5403 80.0339 46.1798 79.9998 39.0982Z" fill="#455A64"/>
<path d="M465.399 204.364L461.761 203C461.761 203 462.877 205.594 460.354 208.724C457.832 211.854 454.138 210.96 453 214.683L456.872 216.427C457.118 215.389 457.578 214.415 458.224 213.567C458.87 212.72 459.687 212.018 460.622 211.508C462.955 210.379 465.455 208.869 465.399 204.364Z" fill="#455A64"/>
<path d="M558.399 467.364L554.761 466C554.761 466 555.877 468.594 553.354 471.724C550.832 474.854 547.138 473.96 546 477.683L549.872 479.427C550.118 478.389 550.578 477.415 551.224 476.567C551.87 475.72 552.687 475.018 553.622 474.508C555.955 473.379 558.455 471.869 558.399 467.364Z" fill="#455A64"/>
<path d="M371.824 283.689L372.349 279.832C372.349 279.832 370.117 281.509 366.467 279.72C362.818 277.931 362.963 274.13 359.035 273.851L358.198 278.021C359.256 278.038 360.299 278.277 361.26 278.722C362.221 279.166 363.078 279.807 363.778 280.603C365.396 282.604 367.449 284.706 371.824 283.689Z" fill="#455A64"/>
<path d="M356.111 105.491L356.635 101.645C356.635 101.645 354.403 103.322 350.754 101.533C347.105 99.7442 347.25 95.943 343.321 95.6635L342.484 99.8336C343.542 99.8504 344.584 100.088 345.545 100.53C346.506 100.973 347.364 101.612 348.064 102.405C349.705 104.406 351.736 106.508 356.111 105.491Z" fill="#5DBD6D"/>
<path d="M558 2.97169L552.698 -6.10352e-05C552.698 -6.10352e-05 548.352 6.64182 553.567 9.9999C553.552 10.0148 552.48 5.69085 558 2.97169Z" fill="#5DBD6D"/>
<path d="M553.137 16.9999L558.997 15.1565C558.997 15.1565 559.346 10.8896 553 10.0001C553.03 9.97428 557.008 13.8416 553.137 16.9999Z" fill="#5DBD6D"/>
<path d="M205.372 255.202L209.669 253.592C209.669 253.592 209.926 249.903 205.205 249.12C205.261 249.12 208.185 252.474 205.372 255.202Z" fill="#455A64"/>
<path d="M368.331 96.1102C368.262 95.5991 368.347 95.0792 368.573 94.6162C368.8 94.1532 369.159 93.768 369.604 93.5094C370.049 93.2508 370.561 93.1304 371.075 93.1635C371.589 93.1966 372.081 93.3818 372.489 93.6954C372.898 94.0091 373.205 94.4371 373.37 94.9254C373.536 95.4137 373.553 95.9402 373.419 96.4383C373.286 96.9363 373.008 97.3835 372.621 97.7232C372.233 98.0628 371.754 98.2797 371.244 98.3462C370.562 98.4352 369.872 98.2498 369.326 97.8308C368.78 97.4117 368.422 96.793 368.331 96.1102Z" fill="#263238"/>
<path d="M398.653 253.424C398.619 253.169 398.662 252.911 398.776 252.681C398.889 252.451 399.068 252.26 399.29 252.132C399.512 252.004 399.767 251.945 400.022 251.962C400.278 251.979 400.523 252.071 400.725 252.228C400.928 252.384 401.081 252.597 401.163 252.84C401.245 253.083 401.253 253.345 401.186 253.593C401.12 253.841 400.981 254.063 400.788 254.232C400.596 254.401 400.357 254.509 400.103 254.542C399.763 254.586 399.419 254.493 399.147 254.284C398.875 254.074 398.697 253.765 398.653 253.424Z" fill="#5DBD6D"/>
<path d="M549.905 255.615L543.711 257.37C543.711 257.37 540.754 249.611 546.903 247.42C546.903 247.375 544.805 251.557 549.905 255.615Z" fill="#455A64"/>
<path d="M548.889 239.226L554.213 242.702C554.213 242.702 553.431 247.767 546.903 247.42C546.903 247.376 551.858 243.787 548.889 239.226Z" fill="#455A64"/>
<path d="M350.888 193.03L344.661 194.83C344.661 194.83 341.715 187.071 347.853 184.88C347.853 184.835 345.766 188.972 350.888 193.03Z" fill="#263238"/>
<path d="M349.85 176.64L355.173 180.117C355.173 180.117 354.392 185.182 347.853 184.835C347.853 184.835 352.819 181.202 349.85 176.64Z" fill="#263238"/>
<path d="M139.373 229.678L133.168 231.434C133.168 231.434 130.221 223.675 136.36 221.483C136.36 221.483 134.261 225.62 139.373 229.678Z" fill="#263238"/>
<path d="M399.724 180.542L403.82 182.778C403.82 182.778 407.168 177.769 403.15 175.254C403.15 175.243 403.965 178.485 399.724 180.542Z" fill="#455A64"/>
<path d="M403.038 169.116L398.731 170.726C398.731 170.726 398.485 174.415 403.195 175.198C403.15 175.243 400.226 171.889 403.038 169.116Z" fill="#455A64"/>
<path d="M257.334 160.865L261.43 163.101C261.43 163.101 264.778 158.104 260.76 155.577C260.76 155.566 261.608 158.819 257.334 160.865Z" fill="#5DBD6D"/>
<path d="M260.648 149.473L256.341 151.071C256.341 151.071 256.095 154.772 260.805 155.543C260.76 155.566 257.836 152.223 260.648 149.473Z" fill="#5DBD6D"/>
</svg>
