<svg width="350" height="675" viewBox="0 0 350 675" fill="none" xmlns="http://www.w3.org/2000/svg">
<path d="M427.135 452.831C427.135 558.92 401.528 654.917 360.18 724.359C318.819 793.821 261.82 836.553 199.054 836.553C183.215 836.553 166.708 837.212 149.989 837.953C147.801 838.05 145.608 838.148 143.413 838.247C128.835 838.901 114.139 839.561 99.6003 839.849C66.1344 840.513 33.599 839.207 5.43848 831.38C-22.6962 823.56 -46.4127 809.247 -62.3367 783.914C-78.2753 758.557 -86.4897 722.03 -83.3325 669.625C-72.6987 493.121 -3.45434 325.898 78.9404 202.803C120.137 141.257 164.601 90.7723 206.635 55.6862C248.71 20.5663 288.201 1 319.468 1C350.702 1 373.01 15.7978 388.974 41.4044C404.977 67.0736 414.584 103.586 420.255 146.867C429.096 214.352 428.334 297.962 427.568 381.912C427.352 405.644 427.135 429.402 427.135 452.831Z" stroke="url(#paint0_linear_1_1130)" stroke-width="2"/>
<defs>
<linearGradient id="paint0_linear_1_1130" x1="184.369" y1="163.829" x2="371.357" y2="224.732" gradientUnits="userSpaceOnUse">
<stop offset="0.161968" stop-color="#6EC47C"/>
<stop offset="1" stop-color="#5DBD6D"/>
</linearGradient>
</defs>
</svg>
