<svg width="445" height="396" viewBox="0 0 445 396" fill="none" xmlns="http://www.w3.org/2000/svg">
<rect x="0.5" y="0.5" width="444" height="395" rx="9.5" fill="white"/>
<rect width="445" height="52" fill="#5DBD6D"/>
<path d="M417.167 18.8701H401V20.7408H417.167V18.8701Z" fill="white"/>
<path d="M417.167 25.0732H401V26.9439H417.167V25.0732Z" fill="white"/>
<path d="M417.167 31.2764H401V33.1471H417.167V31.2764Z" fill="white"/>
<path d="M404.702 22.5924C406.246 22.5924 407.498 21.3405 407.498 19.7962C407.498 18.2519 406.246 17 404.702 17C403.158 17 401.906 18.2519 401.906 19.7962C401.906 21.3405 403.158 22.5924 404.702 22.5924Z" fill="white"/>
<path d="M415.69 26.0971C415.686 26.6493 415.518 27.188 415.209 27.6452C414.899 28.1025 414.461 28.4578 413.95 28.6664C413.439 28.875 412.877 28.9276 412.336 28.8175C411.795 28.7074 411.298 28.4395 410.909 28.0477C410.52 27.6559 410.256 27.1576 410.149 26.6158C410.043 26.0739 410.1 25.5127 410.312 25.0029C410.524 24.4931 410.883 24.0576 411.342 23.7512C411.801 23.4448 412.341 23.2813 412.893 23.2813C413.262 23.2812 413.627 23.3542 413.968 23.496C414.308 23.6377 414.618 23.8455 414.878 24.1072C415.137 24.3689 415.343 24.6795 415.482 25.021C415.622 25.3626 415.692 25.7283 415.69 26.0971Z" fill="white"/>
<path d="M407.282 35.0182C408.826 35.0182 410.078 33.7663 410.078 32.222C410.078 30.6777 408.826 29.4258 407.282 29.4258C405.737 29.4258 404.485 30.6777 404.485 32.222C404.485 33.7663 405.737 35.0182 407.282 35.0182Z" fill="white"/>
<path d="M16.9482 33V22.0909H21.2521C22.0795 22.0909 22.7844 22.2489 23.3668 22.565C23.9492 22.8775 24.3931 23.3125 24.6985 23.87C25.0075 24.424 25.1619 25.0632 25.1619 25.7876C25.1619 26.5121 25.0057 27.1513 24.6932 27.7053C24.3807 28.2592 23.9279 28.6907 23.3349 28.9996C22.7454 29.3086 22.0316 29.4631 21.1935 29.4631H18.4503V27.6147H20.8207C21.2646 27.6147 21.6303 27.5384 21.918 27.3857C22.2092 27.2294 22.4258 27.0146 22.5678 26.7411C22.7134 26.4641 22.7862 26.1463 22.7862 25.7876C22.7862 25.4254 22.7134 25.1094 22.5678 24.8395C22.4258 24.5661 22.2092 24.3548 21.918 24.2056C21.6268 24.0529 21.2575 23.9766 20.81 23.9766H19.2546V33H16.9482ZM28.7308 33.1545C28.2088 33.1545 27.7436 33.0639 27.3352 32.8828C26.9268 32.6982 26.6037 32.4265 26.3658 32.0678C26.1314 31.7056 26.0142 31.2546 26.0142 30.7148C26.0142 30.2603 26.0977 29.8786 26.2646 29.5696C26.4315 29.2607 26.6587 29.0121 26.9464 28.8239C27.234 28.6357 27.5607 28.4936 27.9265 28.3977C28.2958 28.3018 28.6829 28.2344 29.0877 28.1953C29.5636 28.1456 29.9471 28.0994 30.2383 28.0568C30.5295 28.0107 30.7408 27.9432 30.8722 27.8544C31.0036 27.7656 31.0692 27.6342 31.0692 27.4602V27.4283C31.0692 27.0909 30.9627 26.8299 30.7496 26.6452C30.5401 26.4606 30.2418 26.3683 29.8548 26.3683C29.4464 26.3683 29.1214 26.4588 28.88 26.6399C28.6385 26.8175 28.4787 27.0412 28.4006 27.3111L26.3018 27.1406C26.4084 26.6435 26.6179 26.2138 26.9304 25.8516C27.2429 25.4858 27.646 25.2053 28.1396 25.0099C28.6367 24.8111 29.212 24.7116 29.8654 24.7116C30.32 24.7116 30.755 24.7649 31.1705 24.8714C31.5895 24.978 31.9606 25.1431 32.2837 25.3668C32.6104 25.5906 32.8679 25.8782 33.0561 26.2298C33.2443 26.5778 33.3384 26.995 33.3384 27.4815V33H31.1864V31.8654H31.1225C30.9911 32.1211 30.8153 32.3466 30.5952 32.5419C30.375 32.7337 30.1104 32.8846 29.8015 32.9947C29.4925 33.1012 29.1357 33.1545 28.7308 33.1545ZM29.3807 31.5884C29.7145 31.5884 30.0092 31.5227 30.2649 31.3913C30.5206 31.2564 30.7212 31.0753 30.8668 30.848C31.0124 30.6207 31.0852 30.3633 31.0852 30.0756V29.2074C31.0142 29.2536 30.9165 29.2962 30.7923 29.3352C30.6715 29.3707 30.5348 29.4045 30.3821 29.4364C30.2294 29.4648 30.0767 29.4915 29.924 29.5163C29.7713 29.5376 29.6328 29.5572 29.5085 29.5749C29.2422 29.614 29.0096 29.6761 28.8107 29.7614C28.6119 29.8466 28.4574 29.962 28.3473 30.1076C28.2372 30.2496 28.1822 30.4272 28.1822 30.6403C28.1822 30.9492 28.294 31.1854 28.5178 31.3487C28.745 31.5085 29.0327 31.5884 29.3807 31.5884ZM42.2527 24.8182V31.4339H43.5577V35.6314H41.3525V33H35.0989V24.8182H37.2669V31.2156H40.1113V24.8182H42.2527ZM44.9573 33V24.8182H47.2265V33H44.9573ZM46.0972 23.7635C45.7599 23.7635 45.4704 23.6516 45.229 23.4279C44.991 23.2006 44.8721 22.929 44.8721 22.6129C44.8721 22.3004 44.991 22.0323 45.229 21.8086C45.4704 21.5813 45.7599 21.4677 46.0972 21.4677C46.4346 21.4677 46.7222 21.5813 46.9601 21.8086C47.2016 22.0323 47.3224 22.3004 47.3224 22.6129C47.3224 22.929 47.2016 23.2006 46.9601 23.4279C46.7222 23.6516 46.4346 23.7635 46.0972 23.7635ZM52.7409 33.1598C51.9135 33.1598 51.198 32.984 50.5943 32.6325C49.9941 32.2773 49.5307 31.7837 49.204 31.1516C48.8773 30.516 48.714 29.7791 48.714 28.9411C48.714 28.0959 48.8773 27.3572 49.204 26.7251C49.5307 26.0895 49.9941 25.5959 50.5943 25.2443C51.198 24.8892 51.9135 24.7116 52.7409 24.7116C53.5684 24.7116 54.2821 24.8892 54.8823 25.2443C55.486 25.5959 55.9512 26.0895 56.2779 26.7251C56.6046 27.3572 56.7679 28.0959 56.7679 28.9411C56.7679 29.7791 56.6046 30.516 56.2779 31.1516C55.9512 31.7837 55.486 32.2773 54.8823 32.6325C54.2821 32.984 53.5684 33.1598 52.7409 33.1598ZM52.7516 31.402C53.128 31.402 53.4423 31.2955 53.6944 31.0824C53.9466 30.8658 54.1365 30.571 54.2644 30.1982C54.3958 29.8253 54.4615 29.4009 54.4615 28.9251C54.4615 28.4492 54.3958 28.0249 54.2644 27.652C54.1365 27.2791 53.9466 26.9844 53.6944 26.7678C53.4423 26.5511 53.128 26.4428 52.7516 26.4428C52.3716 26.4428 52.052 26.5511 51.7928 26.7678C51.5371 26.9844 51.3436 27.2791 51.2122 27.652C51.0843 28.0249 51.0204 28.4492 51.0204 28.9251C51.0204 29.4009 51.0843 29.8253 51.2122 30.1982C51.3436 30.571 51.5371 30.8658 51.7928 31.0824C52.052 31.2955 52.3716 31.402 52.7516 31.402ZM63.9377 28.0036V29.788H59.6657V28.0036H63.9377ZM60.4114 24.8182V33H58.2434V24.8182H60.4114ZM65.3599 24.8182V33H63.2079V24.8182H65.3599ZM74.2888 33.1598C73.4507 33.1598 72.7298 32.9822 72.1262 32.6271C71.526 32.2685 71.0644 31.7713 70.7412 31.1357C70.4216 30.5 70.2618 29.7685 70.2618 28.9411C70.2618 28.103 70.4234 27.3679 70.7465 26.7358C71.0732 26.1001 71.5367 25.6048 72.1368 25.2496C72.7369 24.891 73.4507 24.7116 74.2781 24.7116C74.9919 24.7116 75.6169 24.8413 76.1531 25.1005C76.6894 25.3597 77.1137 25.7237 77.4262 26.1925C77.7387 26.6612 77.911 27.2116 77.9429 27.8438H75.8016C75.7412 27.4354 75.5814 27.1069 75.3222 26.8583C75.0665 26.6062 74.7309 26.4801 74.3154 26.4801C73.9639 26.4801 73.6567 26.576 73.3939 26.7678C73.1347 26.956 72.9323 27.2312 72.7867 27.5934C72.6411 27.9556 72.5683 28.3942 72.5683 28.9091C72.5683 29.4311 72.6393 29.875 72.7813 30.2408C72.9269 30.6065 73.1311 30.8853 73.3939 31.0771C73.6567 31.2688 73.9639 31.3647 74.3154 31.3647C74.5747 31.3647 74.8073 31.3114 75.0132 31.2049C75.2227 31.0984 75.395 30.9439 75.5299 30.7415C75.6684 30.5355 75.759 30.2887 75.8016 30.0011H77.9429C77.9074 30.6261 77.7369 31.1765 77.4316 31.6523C77.1297 32.1246 76.7124 32.494 76.1798 32.7603C75.6471 33.0266 75.0168 33.1598 74.2888 33.1598ZM79.3958 33V24.8182H86.5495V33H84.3816V26.6026H81.5371V33H79.3958ZM92.0574 33.1598C91.2299 33.1598 90.5144 32.984 89.9107 32.6325C89.3105 32.2773 88.8471 31.7837 88.5204 31.1516C88.1937 30.516 88.0304 29.7791 88.0304 28.9411C88.0304 28.0959 88.1937 27.3572 88.5204 26.7251C88.8471 26.0895 89.3105 25.5959 89.9107 25.2443C90.5144 24.8892 91.2299 24.7116 92.0574 24.7116C92.8848 24.7116 93.5985 24.8892 94.1987 25.2443C94.8024 25.5959 95.2676 26.0895 95.5943 26.7251C95.921 27.3572 96.0843 28.0959 96.0843 28.9411C96.0843 29.7791 95.921 30.516 95.5943 31.1516C95.2676 31.7837 94.8024 32.2773 94.1987 32.6325C93.5985 32.984 92.8848 33.1598 92.0574 33.1598ZM92.068 31.402C92.4444 31.402 92.7587 31.2955 93.0108 31.0824C93.263 30.8658 93.4529 30.571 93.5808 30.1982C93.7122 29.8253 93.7779 29.4009 93.7779 28.9251C93.7779 28.4492 93.7122 28.0249 93.5808 27.652C93.4529 27.2791 93.263 26.9844 93.0108 26.7678C92.7587 26.5511 92.4444 26.4428 92.068 26.4428C91.688 26.4428 91.3684 26.5511 91.1092 26.7678C90.8535 26.9844 90.66 27.2791 90.5286 27.652C90.4007 28.0249 90.3368 28.4492 90.3368 28.9251C90.3368 29.4009 90.4007 29.8253 90.5286 30.1982C90.66 30.571 90.8535 30.8658 91.1092 31.0824C91.3684 31.2955 91.688 31.402 92.068 31.402ZM97.5598 36.0682V24.8182H99.7971V26.1925H99.8983C99.9977 25.9723 100.142 25.7486 100.33 25.5213C100.521 25.2905 100.77 25.0987 101.075 24.946C101.384 24.7898 101.768 24.7116 102.226 24.7116C102.823 24.7116 103.373 24.8679 103.877 25.1804C104.382 25.4893 104.785 25.9563 105.086 26.5813C105.388 27.2028 105.539 27.9822 105.539 28.9197C105.539 29.8324 105.392 30.603 105.097 31.2315C104.806 31.8565 104.408 32.3306 103.904 32.6538C103.403 32.9734 102.842 33.1332 102.221 33.1332C101.78 33.1332 101.406 33.0604 101.097 32.9148C100.791 32.7692 100.541 32.5863 100.346 32.3661C100.15 32.1424 100.001 31.9169 99.8983 31.6896H99.829V36.0682H97.5598ZM99.7811 28.9091C99.7811 29.3956 99.8485 29.82 99.9835 30.1822C100.118 30.5444 100.314 30.8267 100.569 31.0291C100.825 31.228 101.136 31.3274 101.502 31.3274C101.871 31.3274 102.183 31.2262 102.439 31.0238C102.695 30.8178 102.888 30.5337 103.02 30.1715C103.155 29.8058 103.222 29.3849 103.222 28.9091C103.222 28.4368 103.156 28.0213 103.025 27.6626C102.894 27.304 102.7 27.0234 102.444 26.821C102.189 26.6186 101.874 26.5174 101.502 26.5174C101.132 26.5174 100.82 26.6151 100.564 26.8104C100.312 27.0057 100.118 27.2827 99.9835 27.6413C99.8485 28 99.7811 28.4226 99.7811 28.9091ZM106.26 26.6026V24.8182H113.674V26.6026H111.038V33H108.875V26.6026H106.26ZM118.454 33.1598C117.616 33.1598 116.895 32.9822 116.291 32.6271C115.691 32.2685 115.229 31.7713 114.906 31.1357C114.587 30.5 114.427 29.7685 114.427 28.9411C114.427 28.103 114.588 27.3679 114.912 26.7358C115.238 26.1001 115.702 25.6048 116.302 25.2496C116.902 24.891 117.616 24.7116 118.443 24.7116C119.157 24.7116 119.782 24.8413 120.318 25.1005C120.854 25.3597 121.279 25.7237 121.591 26.1925C121.904 26.6612 122.076 27.2116 122.108 27.8438H119.967C119.906 27.4354 119.746 27.1069 119.487 26.8583C119.232 26.6062 118.896 26.4801 118.48 26.4801C118.129 26.4801 117.822 26.576 117.559 26.7678C117.3 26.956 117.097 27.2312 116.952 27.5934C116.806 27.9556 116.733 28.3942 116.733 28.9091C116.733 29.4311 116.804 29.875 116.946 30.2408C117.092 30.6065 117.296 30.8853 117.559 31.0771C117.822 31.2688 118.129 31.3647 118.48 31.3647C118.74 31.3647 118.972 31.3114 119.178 31.2049C119.388 31.0984 119.56 30.9439 119.695 30.7415C119.833 30.5355 119.924 30.2887 119.967 30.0011H122.108C122.072 30.6261 121.902 31.1765 121.597 31.6523C121.295 32.1246 120.877 32.494 120.345 32.7603C119.812 33.0266 119.182 33.1598 118.454 33.1598ZM128.397 30.4911L130.613 24.8182H132.339L129.149 33H127.641L124.525 24.8182H126.245L128.397 30.4911ZM125.729 24.8182V33H123.561V24.8182H125.729ZM131.178 33V24.8182H133.319V33H131.178ZM138.803 33.1598C137.962 33.1598 137.237 32.9893 136.63 32.6484C136.026 32.304 135.561 31.8175 135.234 31.1889C134.908 30.5568 134.744 29.8093 134.744 28.9464C134.744 28.1048 134.908 27.3661 135.234 26.7305C135.561 26.0948 136.021 25.5994 136.614 25.2443C137.21 24.8892 137.91 24.7116 138.713 24.7116C139.252 24.7116 139.755 24.7987 140.22 24.9727C140.689 25.1431 141.097 25.4006 141.445 25.745C141.797 26.0895 142.07 26.5227 142.266 27.0447C142.461 27.5632 142.559 28.1705 142.559 28.8665V29.4897H135.65V28.0835H140.422C140.422 27.7567 140.351 27.4673 140.209 27.2152C140.067 26.9631 139.87 26.766 139.618 26.6239C139.37 26.4783 139.08 26.4055 138.75 26.4055C138.405 26.4055 138.1 26.4854 137.834 26.6452C137.571 26.8015 137.365 27.0128 137.216 27.2791C137.067 27.5419 136.99 27.8349 136.987 28.158V29.495C136.987 29.8999 137.061 30.2496 137.21 30.5444C137.363 30.8391 137.578 31.0664 137.855 31.2262C138.132 31.386 138.46 31.4659 138.84 31.4659C139.093 31.4659 139.323 31.4304 139.533 31.3594C139.742 31.2884 139.922 31.1818 140.071 31.0398C140.22 30.8977 140.334 30.7237 140.412 30.5178L142.511 30.6562C142.404 31.1605 142.186 31.6009 141.855 31.9773C141.529 32.3501 141.106 32.6413 140.588 32.8509C140.073 33.0568 139.478 33.1598 138.803 33.1598ZM149.734 28.0036V29.788H145.462V28.0036H149.734ZM146.207 24.8182V33H144.039V24.8182H146.207ZM151.156 24.8182V33H149.004V24.8182H151.156ZM155.249 33.1545C154.727 33.1545 154.262 33.0639 153.854 32.8828C153.445 32.6982 153.122 32.4265 152.884 32.0678C152.65 31.7056 152.533 31.2546 152.533 30.7148C152.533 30.2603 152.616 29.8786 152.783 29.5696C152.95 29.2607 153.177 29.0121 153.465 28.8239C153.753 28.6357 154.079 28.4936 154.445 28.3977C154.814 28.3018 155.201 28.2344 155.606 28.1953C156.082 28.1456 156.466 28.0994 156.757 28.0568C157.048 28.0107 157.259 27.9432 157.391 27.8544C157.522 27.7656 157.588 27.6342 157.588 27.4602V27.4283C157.588 27.0909 157.481 26.8299 157.268 26.6452C157.059 26.4606 156.76 26.3683 156.373 26.3683C155.965 26.3683 155.64 26.4588 155.399 26.6399C155.157 26.8175 154.997 27.0412 154.919 27.3111L152.82 27.1406C152.927 26.6435 153.136 26.2138 153.449 25.8516C153.761 25.4858 154.165 25.2053 154.658 25.0099C155.155 24.8111 155.731 24.7116 156.384 24.7116C156.839 24.7116 157.274 24.7649 157.689 24.8714C158.108 24.978 158.479 25.1431 158.802 25.3668C159.129 25.5906 159.386 25.8782 159.575 26.2298C159.763 26.5778 159.857 26.995 159.857 27.4815V33H157.705V31.8654H157.641C157.51 32.1211 157.334 32.3466 157.114 32.5419C156.894 32.7337 156.629 32.8846 156.32 32.9947C156.011 33.1012 155.654 33.1545 155.249 33.1545ZM155.899 31.5884C156.233 31.5884 156.528 31.5227 156.783 31.3913C157.039 31.2564 157.24 31.0753 157.385 30.848C157.531 30.6207 157.604 30.3633 157.604 30.0756V29.2074C157.533 29.2536 157.435 29.2962 157.311 29.3352C157.19 29.3707 157.053 29.4045 156.901 29.4364C156.748 29.4648 156.595 29.4915 156.443 29.5163C156.29 29.5376 156.151 29.5572 156.027 29.5749C155.761 29.614 155.528 29.6761 155.329 29.7614C155.13 29.8466 154.976 29.962 154.866 30.1076C154.756 30.2496 154.701 30.4272 154.701 30.6403C154.701 30.9492 154.813 31.1854 155.036 31.3487C155.264 31.5085 155.551 31.5884 155.899 31.5884Z" fill="white"/>
<path d="M7 152.785L29.6665 152.571L52.333 152.499L97.6541 152.345L142.987 152.488L165.654 152.571L188.32 152.785L165.654 153.011L142.987 153.083L97.6541 153.238L52.333 153.083L29.6665 153.011L7 152.785Z" fill="#EBEBEB"/>
<path d="M20.7688 139V128.61H24.4011C25.1249 128.61 25.7218 128.736 26.1919 128.986C26.662 129.233 27.012 129.566 27.242 129.985C27.472 130.401 27.587 130.863 27.587 131.37C27.587 131.817 27.5075 132.185 27.3486 132.476C27.193 132.767 26.9867 132.997 26.7296 133.166C26.476 133.335 26.2004 133.46 25.9027 133.541V133.643C26.2207 133.663 26.5403 133.775 26.8615 133.978C27.1828 134.181 27.4517 134.471 27.6682 134.85C27.8846 135.229 27.9928 135.692 27.9928 136.24C27.9928 136.761 27.8745 137.23 27.6377 137.646C27.401 138.061 27.0273 138.391 26.5166 138.635C26.0059 138.878 25.3413 139 24.5229 139H20.7688ZM22.027 137.884H24.5229C25.3447 137.884 25.9281 137.725 26.2731 137.407C26.6214 137.086 26.7956 136.697 26.7956 136.24C26.7956 135.889 26.706 135.564 26.5267 135.266C26.3475 134.965 26.0921 134.725 25.7607 134.546C25.4293 134.363 25.0369 134.272 24.5838 134.272H22.027V137.884ZM22.027 133.176H24.3605C24.7393 133.176 25.0809 133.102 25.3853 132.953C25.6931 132.804 25.9366 132.594 26.1158 132.324C26.2984 132.053 26.3898 131.735 26.3898 131.37C26.3898 130.914 26.2308 130.526 25.9129 130.208C25.595 129.887 25.0911 129.727 24.4011 129.727H22.027V133.176ZM29.8977 139V131.208H31.095V139H29.8977ZM30.5065 129.909C30.2731 129.909 30.0719 129.83 29.9028 129.671C29.7371 129.512 29.6542 129.321 29.6542 129.097C29.6542 128.874 29.7371 128.683 29.9028 128.524C30.0719 128.365 30.2731 128.286 30.5065 128.286C30.7399 128.286 30.9394 128.365 31.1051 128.524C31.2742 128.683 31.3588 128.874 31.3588 129.097C31.3588 129.321 31.2742 129.512 31.1051 129.671C30.9394 129.83 30.7399 129.909 30.5065 129.909ZM32.8414 132.324V131.208H39.1725V132.324H36.6157V139H35.4184V132.324H32.8414ZM42.8073 139.183C42.3135 139.183 41.8654 139.09 41.4629 138.904C41.0605 138.714 40.7409 138.442 40.5041 138.087C40.2674 137.728 40.149 137.295 40.149 136.788C40.149 136.342 40.237 135.98 40.4128 135.703C40.5887 135.422 40.8237 135.202 41.118 135.043C41.4122 134.884 41.7369 134.766 42.092 134.688C42.4505 134.607 42.8107 134.543 43.1726 134.495C43.646 134.434 44.0299 134.389 44.3241 134.358C44.6217 134.324 44.8382 134.269 44.9735 134.191C45.1121 134.113 45.1815 133.978 45.1815 133.785V133.744C45.1815 133.244 45.0445 132.855 44.7706 132.578C44.5 132.3 44.0891 132.162 43.5378 132.162C42.9663 132.162 42.5181 132.287 42.1935 132.537C41.8688 132.787 41.6405 133.054 41.5086 133.339L40.3722 132.933C40.5752 132.459 40.8457 132.091 41.1839 131.827C41.5255 131.56 41.8975 131.374 42.3 131.269C42.7058 131.161 43.1049 131.106 43.4972 131.106C43.7475 131.106 44.035 131.137 44.3596 131.198C44.6877 131.255 45.0039 131.375 45.3083 131.558C45.6161 131.741 45.8714 132.016 46.0743 132.385C46.2772 132.753 46.3787 133.247 46.3787 133.866V139H45.1815V137.945H45.1206C45.0394 138.114 44.9041 138.295 44.7147 138.488C44.5254 138.68 44.2734 138.844 43.9589 138.98C43.6443 139.115 43.2605 139.183 42.8073 139.183ZM42.9899 138.107C43.4634 138.107 43.8625 138.014 44.1872 137.828C44.5152 137.642 44.7621 137.402 44.9278 137.108C45.0969 136.814 45.1815 136.504 45.1815 136.179V135.084C45.1307 135.145 45.0191 135.2 44.8466 135.251C44.6775 135.298 44.4814 135.341 44.2582 135.378C44.0383 135.412 43.8236 135.442 43.6139 135.469C43.4076 135.493 43.2402 135.513 43.1117 135.53C42.8005 135.571 42.5097 135.637 42.2391 135.728C41.9719 135.816 41.7555 135.949 41.5898 136.129C41.4274 136.305 41.3463 136.545 41.3463 136.849C41.3463 137.265 41.5001 137.58 41.8079 137.793C42.1191 138.002 42.5131 138.107 42.9899 138.107ZM52.8252 137.377L55.5444 131.208H56.6807L53.3122 139H52.3382L49.0306 131.208H50.1467L52.8252 137.377ZM49.7611 131.208V139H48.5639V131.208H49.7611ZM55.8893 139V131.208H57.0866V139H55.8893ZM59.2781 139V131.208H60.4753V139H59.2781ZM59.8869 129.909C59.6535 129.909 59.4523 129.83 59.2832 129.671C59.1175 129.512 59.0346 129.321 59.0346 129.097C59.0346 128.874 59.1175 128.683 59.2832 128.524C59.4523 128.365 59.6535 128.286 59.8869 128.286C60.1202 128.286 60.3198 128.365 60.4855 128.524C60.6546 128.683 60.7391 128.874 60.7391 129.097C60.7391 129.321 60.6546 129.512 60.4855 129.671C60.3198 129.83 60.1202 129.909 59.8869 129.909ZM67.8832 134.556V135.672H63.5813V134.556H67.8832ZM63.8654 131.208V139H62.6682V131.208H63.8654ZM68.7964 131.208V139H67.5991V131.208H68.7964ZM72.1801 137.235L75.9341 131.208H77.3139V139H76.1167V132.973L72.383 139H70.9828V131.208H72.1801V137.235Z" fill="#777575"/>
<path d="M7 200.285L29.6665 200.071L52.333 199.999L97.6541 199.845L142.987 199.988L165.654 200.071L188.32 200.285L165.654 200.511L142.987 200.583L97.6541 200.738L52.333 200.583L29.6665 200.511L7 200.285Z" fill="#EBEBEB"/>
<path d="M20.7688 188.237V177.848H27.0391V178.964H22.027V182.211H24.6649C25.409 182.211 26.0363 182.332 26.547 182.576C27.0611 182.819 27.45 183.163 27.7138 183.606C27.981 184.049 28.1146 184.571 28.1146 185.173C28.1146 185.775 27.981 186.306 27.7138 186.766C27.45 187.226 27.0611 187.586 26.547 187.847C26.0363 188.107 25.409 188.237 24.6649 188.237H20.7688ZM22.027 187.142H24.6649C25.1384 187.142 25.5392 187.047 25.8672 186.857C26.1987 186.665 26.4489 186.418 26.618 186.117C26.7905 185.812 26.8768 185.491 26.8768 185.153C26.8768 184.656 26.6857 184.228 26.3035 183.869C25.9213 183.508 25.3751 183.327 24.6649 183.327H22.027V187.142ZM30.0233 188.237V180.445H31.2205V188.237H30.0233ZM30.6321 179.146C30.3987 179.146 30.1975 179.067 30.0284 178.908C29.8627 178.749 29.7798 178.558 29.7798 178.335C29.7798 178.112 29.8627 177.92 30.0284 177.762C30.1975 177.603 30.3987 177.523 30.6321 177.523C30.8654 177.523 31.065 177.603 31.2307 177.762C31.3998 177.92 31.4843 178.112 31.4843 178.335C31.4843 178.558 31.3998 178.749 31.2307 178.908C31.065 179.067 30.8654 179.146 30.6321 179.146ZM32.7234 188.237V187.121H33.0075C33.2409 187.121 33.4353 187.076 33.5909 186.984C33.7465 186.89 33.8716 186.726 33.9663 186.492C34.0644 186.255 34.1388 185.927 34.1895 185.508C34.2436 185.085 34.2825 184.548 34.3062 183.895L34.4482 180.445H39.643V188.237H38.4458V181.561H35.5846L35.4628 184.341C35.4358 184.98 35.3783 185.544 35.2904 186.031C35.2058 186.514 35.0756 186.92 34.8997 187.248C34.7273 187.576 34.4973 187.823 34.2098 187.989C33.9223 188.154 33.5621 188.237 33.1293 188.237H32.7234ZM41.8396 188.237V180.445H43.0368V183.834H43.8282L46.6285 180.445H48.1707L45.0255 184.199L48.2113 188.237H46.6691L44.1123 184.95H43.0368V188.237H41.8396ZM50.7098 186.472L54.4638 180.445H55.8437V188.237H54.6464V182.211L50.9127 188.237H49.5126V180.445H50.7098V186.472Z" fill="#777575"/>
<path d="M7 245.832L29.6546 245.618L52.3211 245.535L97.6541 245.38L142.987 245.535L165.642 245.606L188.308 245.832L165.642 246.047L142.987 246.13L97.6541 246.273L52.3211 246.13L29.6546 246.047L7 245.832Z" fill="#EBEBEB"/>
<path d="M26.9173 225.348V235.737H25.6592V225.348H26.9173ZM19.8963 235.737L23.2648 230.319L20.1804 225.348H21.7023L24.4011 229.954H28.1957L30.8946 225.348H32.4165L29.3118 230.34L32.6803 235.737H31.2396L28.419 231.131H24.1576L21.3167 235.737H19.8963ZM35.3639 233.972L39.1179 227.945H40.4978V235.737H39.3006V229.711L35.5668 235.737H34.1667V227.945H35.3639V233.972ZM42.6906 238.659V227.945H43.8473V229.183H43.9893C44.0772 229.048 44.199 228.875 44.3546 228.666C44.5135 228.452 44.7401 228.263 45.0343 228.097C45.332 227.928 45.7344 227.844 46.2417 227.844C46.8978 227.844 47.4762 228.008 47.9767 228.336C48.4772 228.664 48.8679 229.129 49.1486 229.731C49.4293 230.333 49.5696 231.043 49.5696 231.862C49.5696 232.687 49.4293 233.402 49.1486 234.007C48.8679 234.609 48.4789 235.076 47.9818 235.408C47.4846 235.736 46.9114 235.9 46.262 235.9C45.7615 235.9 45.3607 235.817 45.0597 235.651C44.7587 235.482 44.527 235.291 44.3647 235.078C44.2024 234.861 44.0772 234.682 43.9893 234.54H43.8878V238.659H42.6906ZM43.8676 231.841C43.8676 232.43 43.9538 232.949 44.1263 233.399C44.2988 233.845 44.5507 234.195 44.8822 234.449C45.2136 234.699 45.6194 234.824 46.0997 234.824C46.6002 234.824 47.0179 234.692 47.3527 234.428C47.6909 234.161 47.9446 233.803 48.1137 233.353C48.2862 232.9 48.3724 232.396 48.3724 231.841C48.3724 231.293 48.2878 230.8 48.1187 230.36C47.953 229.917 47.7011 229.567 47.3629 229.31C47.028 229.049 46.607 228.919 46.0997 228.919C45.6127 228.919 45.2034 229.043 44.872 229.29C44.5406 229.533 44.2903 229.875 44.1212 230.314C43.9521 230.751 43.8676 231.26 43.8676 231.841ZM52.5931 233.972L56.3472 227.945H57.727V235.737H56.5298V229.711L52.7961 235.737H51.3959V227.945H52.5931V233.972Z" fill="#777575"/>
<path d="M7 289.617L29.6665 289.403L52.333 289.332L97.6541 289.177L142.987 289.332L165.654 289.403L188.32 289.617L165.654 289.843L142.987 289.915L97.6541 290.07L52.333 289.915L29.6665 289.843L7 289.617Z" fill="#EBEBEB"/>
<path d="M21.9593 281.272V270.883H25.5916C26.3153 270.883 26.9122 271.008 27.3823 271.258C27.8524 271.505 28.2025 271.838 28.4324 272.258C28.6624 272.674 28.7774 273.135 28.7774 273.643C28.7774 274.089 28.6979 274.458 28.539 274.749C28.3834 275.039 28.1771 275.269 27.9201 275.438C27.6664 275.608 27.3908 275.733 27.0932 275.814V275.915C27.4111 275.936 27.7307 276.047 28.052 276.25C28.3733 276.453 28.6421 276.744 28.8586 277.123C29.075 277.502 29.1833 277.965 29.1833 278.513C29.1833 279.034 29.0649 279.502 28.8281 279.918C28.5914 280.334 28.2177 280.664 27.707 280.907C27.1963 281.151 26.5318 281.272 25.7133 281.272H21.9593ZM23.2174 280.156H25.7133C26.5351 280.156 27.1185 279.997 27.4635 279.68C27.8118 279.358 27.986 278.969 27.986 278.513C27.986 278.161 27.8964 277.836 27.7172 277.539C27.5379 277.238 27.2826 276.998 26.9511 276.818C26.6197 276.636 26.2274 276.544 25.7742 276.544H23.2174V280.156ZM23.2174 275.449H25.551C25.9298 275.449 26.2713 275.374 26.5757 275.225C26.8835 275.077 27.127 274.867 27.3062 274.596C27.4889 274.326 27.5802 274.008 27.5802 273.643C27.5802 273.186 27.4212 272.799 27.1033 272.481C26.7854 272.16 26.2815 271.999 25.5916 271.999H23.2174V275.449ZM31.8593 284.195C31.6563 284.195 31.4754 284.178 31.3165 284.144C31.1575 284.113 31.0476 284.083 30.9867 284.052L31.2911 282.997C31.5819 283.072 31.839 283.099 32.0622 283.078C32.2854 283.058 32.4832 282.958 32.6557 282.779C32.8316 282.603 32.9922 282.318 33.1377 281.922L33.3609 281.313L30.4794 273.48H31.7781L33.9291 279.69H34.0102L36.1612 273.48H37.4599L34.1523 282.409C34.0035 282.811 33.8191 283.144 33.5993 283.408C33.3795 283.675 33.1241 283.873 32.8333 284.002C32.5458 284.13 32.2211 284.195 31.8593 284.195ZM43.8493 273.48V274.596H40.2374V281.272H39.0401V273.48H43.8493ZM44.2514 281.272V280.156H44.5355C44.7688 280.156 44.9633 280.111 45.1189 280.019C45.2744 279.925 45.3996 279.761 45.4943 279.527C45.5923 279.291 45.6667 278.963 45.7175 278.543C45.7716 278.12 45.8105 277.583 45.8342 276.93L45.9762 273.48H51.171V281.272H49.9737V274.596H47.1126L46.9908 277.376C46.9637 278.016 46.9063 278.579 46.8183 279.066C46.7338 279.549 46.6036 279.955 46.4277 280.283C46.2552 280.611 46.0252 280.858 45.7378 281.024C45.4503 281.19 45.0901 281.272 44.6572 281.272H44.2514ZM56.6346 281.435C55.8838 281.435 55.2361 281.269 54.6916 280.938C54.1505 280.603 53.7328 280.136 53.4386 279.537C53.1478 278.935 53.0023 278.235 53.0023 277.437C53.0023 276.639 53.1478 275.936 53.4386 275.327C53.7328 274.715 54.1421 274.238 54.6663 273.896C55.1939 273.551 55.8094 273.379 56.5129 273.379C56.9187 273.379 57.3195 273.446 57.7152 273.582C58.1109 273.717 58.471 273.937 58.7957 274.241C59.1204 274.542 59.3791 274.941 59.5719 275.438C59.7647 275.936 59.861 276.548 59.861 277.275V277.782H53.8546V276.747H58.6435C58.6435 276.308 58.5556 275.915 58.3797 275.57C58.2072 275.225 57.9604 274.953 57.6391 274.754C57.3212 274.554 56.9458 274.454 56.5129 274.454C56.036 274.454 55.6234 274.573 55.275 274.809C54.9301 275.043 54.6646 275.347 54.4786 275.723C54.2926 276.098 54.1996 276.5 54.1996 276.93V277.62C54.1996 278.208 54.301 278.707 54.5039 279.116C54.7102 279.522 54.996 279.832 55.3613 280.045C55.7265 280.254 56.151 280.359 56.6346 280.359C56.9491 280.359 57.2332 280.315 57.4869 280.227C57.7439 280.136 57.9654 280.001 58.1514 279.822C58.3374 279.639 58.4812 279.412 58.5826 279.142L59.7393 279.466C59.6175 279.859 59.4129 280.204 59.1255 280.501C58.838 280.796 58.4829 281.026 58.0601 281.191C57.6374 281.354 57.1622 281.435 56.6346 281.435ZM61.6823 281.272V273.48H64.8681C65.7068 273.48 66.3731 273.67 66.8669 274.048C67.3606 274.427 67.6075 274.928 67.6075 275.55C67.6075 276.024 67.4672 276.391 67.1865 276.651C66.9058 276.908 66.5456 277.082 66.1059 277.173C66.3934 277.214 66.6724 277.316 66.943 277.478C67.2169 277.64 67.4435 277.863 67.6228 278.147C67.802 278.428 67.8916 278.773 67.8916 279.182C67.8916 279.581 67.7902 279.938 67.5872 280.253C67.3843 280.567 67.0935 280.816 66.7147 280.999C66.3359 281.181 65.8827 281.272 65.3551 281.272H61.6823ZM62.8186 280.177H65.3551C65.7677 280.177 66.0907 280.079 66.3241 279.882C66.5574 279.686 66.6741 279.419 66.6741 279.081C66.6741 278.678 66.5574 278.362 66.3241 278.132C66.0907 277.899 65.7677 277.782 65.3551 277.782H62.8186V280.177ZM62.8186 276.747H64.8681C65.1894 276.747 65.465 276.703 65.695 276.615C65.925 276.524 66.1009 276.396 66.2226 276.23C66.3477 276.061 66.4103 275.861 66.4103 275.631C66.4103 275.303 66.2733 275.046 65.9994 274.86C65.7254 274.671 65.3484 274.576 64.8681 274.576H62.8186V276.747ZM72.8695 281.435C72.1661 281.435 71.5488 281.267 71.0179 280.933C70.4903 280.598 70.0777 280.129 69.7801 279.527C69.4858 278.925 69.3387 278.222 69.3387 277.417C69.3387 276.605 69.4858 275.897 69.7801 275.291C70.0777 274.686 70.4903 274.216 71.0179 273.881C71.5488 273.546 72.1661 273.379 72.8695 273.379C73.573 273.379 74.1885 273.546 74.7161 273.881C75.2471 274.216 75.6597 274.686 75.9539 275.291C76.2515 275.897 76.4003 276.605 76.4003 277.417C76.4003 278.222 76.2515 278.925 75.9539 279.527C75.6597 280.129 75.2471 280.598 74.7161 280.933C74.1885 281.267 73.573 281.435 72.8695 281.435ZM72.8695 280.359C73.4039 280.359 73.8435 280.222 74.1885 279.948C74.5335 279.674 74.7888 279.314 74.9545 278.868C75.1202 278.421 75.2031 277.938 75.2031 277.417C75.2031 276.896 75.1202 276.411 74.9545 275.961C74.7888 275.511 74.5335 275.148 74.1885 274.87C73.8435 274.593 73.4039 274.454 72.8695 274.454C72.3352 274.454 71.8955 274.593 71.5505 274.87C71.2056 275.148 70.9502 275.511 70.7845 275.961C70.6188 276.411 70.5359 276.896 70.5359 277.417C70.5359 277.938 70.6188 278.421 70.7845 278.868C70.9502 279.314 71.2056 279.674 71.5505 279.948C71.8955 280.222 72.3352 280.359 72.8695 280.359ZM77.3959 283.505V280.156H78.0453C78.2042 279.991 78.3412 279.811 78.4562 279.619C78.5712 279.426 78.6709 279.198 78.7555 278.934C78.8434 278.667 78.9178 278.342 78.9787 277.96C79.0396 277.574 79.0937 277.109 79.141 276.565L79.4048 273.48H84.3561V280.156H85.5533V283.505H84.3561V281.272H78.5932V283.505H77.3959ZM79.4048 280.156H83.1589V274.596H80.5209L80.318 276.565C80.2334 277.38 80.1286 278.092 80.0034 278.7C79.8783 279.309 79.6788 279.795 79.4048 280.156ZM88.3397 279.507L92.0937 273.48H93.4736V281.272H92.2763V275.246L88.5426 281.272H87.1424V273.48H88.3397V279.507Z" fill="#777575"/>
<path d="M7 331.653L29.6665 331.426L52.333 331.355L97.6541 331.2L142.987 331.355L165.654 331.426L188.32 331.653L165.654 331.867L142.987 331.95L97.6541 332.093L52.333 331.938L29.6665 331.867L7 331.653Z" fill="#EBEBEB"/>
<path d="M21.9593 314.68H23.4609L26.9917 323.304H27.1135L30.6443 314.68H32.1459V325.069H30.969V317.176H30.8675L27.6208 325.069H26.4844L23.2377 317.176H23.1362V325.069H21.9593V314.68ZM34.5061 325.069V317.277H35.7033V325.069H34.5061ZM35.1149 315.978C34.8815 315.978 34.6803 315.899 34.5112 315.74C34.3455 315.581 34.2626 315.39 34.2626 315.167C34.2626 314.944 34.3455 314.753 34.5112 314.594C34.6803 314.435 34.8815 314.355 35.1149 314.355C35.3482 314.355 35.5478 314.435 35.7135 314.594C35.8826 314.753 35.9671 314.944 35.9671 315.167C35.9671 315.39 35.8826 315.581 35.7135 315.74C35.5478 315.899 35.3482 315.978 35.1149 315.978ZM43.1112 320.625V321.741H38.8093V320.625H43.1112ZM39.0934 317.277V325.069H37.8962V317.277H39.0934ZM44.0244 317.277V325.069H42.8271V317.277H44.0244ZM49.4778 325.232C48.727 325.232 48.0794 325.066 47.5349 324.735C46.9938 324.4 46.5761 323.933 46.2818 323.334C45.991 322.732 45.8456 322.032 45.8456 321.234C45.8456 320.436 45.991 319.733 46.2818 319.124C46.5761 318.512 46.9853 318.035 47.5095 317.693C48.0371 317.348 48.6526 317.176 49.3561 317.176C49.7619 317.176 50.1627 317.243 50.5584 317.379C50.9541 317.514 51.3143 317.734 51.639 318.038C51.9636 318.339 52.2223 318.738 52.4151 319.235C52.6079 319.733 52.7043 320.345 52.7043 321.072V321.579H46.6978V320.544H51.4868C51.4868 320.105 51.3988 319.712 51.223 319.367C51.0505 319.022 50.8036 318.75 50.4823 318.551C50.1644 318.351 49.789 318.251 49.3561 318.251C48.8792 318.251 48.4666 318.37 48.1183 318.606C47.7733 318.84 47.5078 319.144 47.3218 319.519C47.1358 319.895 47.0428 320.297 47.0428 320.727V321.417C47.0428 322.005 47.1443 322.504 47.3472 322.913C47.5535 323.319 47.8393 323.629 48.2045 323.842C48.5698 324.051 48.9942 324.156 49.4778 324.156C49.7924 324.156 50.0765 324.112 50.3301 324.024C50.5871 323.933 50.8087 323.798 50.9947 323.618C51.1807 323.436 51.3244 323.209 51.4259 322.939L52.5825 323.263C52.4608 323.656 52.2562 324.001 51.9687 324.298C51.6812 324.592 51.3261 324.822 50.9034 324.988C50.4806 325.151 50.0054 325.232 49.4778 325.232ZM54.5255 327.991V317.277H55.6821V318.515H55.8242C55.9121 318.38 56.0339 318.207 56.1894 317.998C56.3484 317.784 56.575 317.595 56.8692 317.429C57.1668 317.26 57.5693 317.176 58.0766 317.176C58.7327 317.176 59.311 317.34 59.8116 317.668C60.3121 317.996 60.7027 318.461 60.9834 319.063C61.2642 319.665 61.4045 320.375 61.4045 321.194C61.4045 322.019 61.2642 322.734 60.9834 323.339C60.7027 323.941 60.3138 324.408 59.8167 324.74C59.3195 325.068 58.7462 325.232 58.0969 325.232C57.5964 325.232 57.1956 325.149 56.8946 324.983C56.5936 324.814 56.3619 324.623 56.1996 324.41C56.0373 324.193 55.9121 324.014 55.8242 323.872H55.7227V327.991H54.5255ZM55.7024 321.173C55.7024 321.762 55.7887 322.281 55.9612 322.731C56.1336 323.177 56.3856 323.527 56.717 323.781C57.0485 324.031 57.4543 324.156 57.9346 324.156C58.4351 324.156 58.8528 324.024 59.1876 323.76C59.5258 323.493 59.7794 323.135 59.9486 322.685C60.121 322.232 60.2073 321.728 60.2073 321.173C60.2073 320.625 60.1227 320.132 59.9536 319.692C59.7879 319.249 59.5359 318.899 59.1977 318.642C58.8629 318.381 58.4419 318.251 57.9346 318.251C57.4476 318.251 57.0383 318.375 56.7069 318.622C56.3755 318.865 56.1252 319.207 55.9561 319.646C55.787 320.083 55.7024 320.592 55.7024 321.173ZM65.5238 325.252C65.03 325.252 64.5819 325.159 64.1794 324.973C63.777 324.784 63.4574 324.511 63.2206 324.156C62.9839 323.798 62.8655 323.365 62.8655 322.858C62.8655 322.411 62.9535 322.049 63.1293 321.772C63.3052 321.491 63.5402 321.271 63.8345 321.112C64.1287 320.953 64.4534 320.835 64.8085 320.757C65.167 320.676 65.5272 320.612 65.8891 320.564C66.3625 320.504 66.7464 320.458 67.0406 320.428C67.3382 320.394 67.5547 320.338 67.69 320.26C67.8286 320.182 67.898 320.047 67.898 319.854V319.814C67.898 319.313 67.761 318.924 67.4871 318.647C67.2165 318.37 66.8056 318.231 66.2543 318.231C65.6827 318.231 65.2346 318.356 64.91 318.606C64.5853 318.857 64.357 319.124 64.2251 319.408L63.0887 319.002C63.2917 318.529 63.5622 318.16 63.9004 317.896C64.242 317.629 64.614 317.443 65.0165 317.338C65.4223 317.23 65.8214 317.176 66.2137 317.176C66.464 317.176 66.7515 317.206 67.0761 317.267C67.4042 317.325 67.7204 317.445 68.0248 317.627C68.3326 317.81 68.5879 318.085 68.7908 318.454C68.9937 318.823 69.0952 319.317 69.0952 319.935V325.069H67.898V324.014H67.8371C67.7559 324.183 67.6206 324.364 67.4312 324.557C67.2419 324.75 66.9899 324.914 66.6754 325.049C66.3608 325.184 65.977 325.252 65.5238 325.252ZM65.7064 324.176C66.1799 324.176 66.579 324.083 66.9037 323.897C67.2317 323.711 67.4786 323.471 67.6443 323.177C67.8134 322.883 67.898 322.573 67.898 322.249V321.153C67.8472 321.214 67.7356 321.27 67.5631 321.32C67.394 321.368 67.1979 321.41 66.9747 321.447C66.7548 321.481 66.5401 321.511 66.3304 321.539C66.1241 321.562 65.9567 321.582 65.8282 321.599C65.517 321.64 65.2262 321.706 64.9556 321.797C64.6884 321.885 64.472 322.019 64.3063 322.198C64.1439 322.374 64.0628 322.614 64.0628 322.918C64.0628 323.334 64.2166 323.649 64.5244 323.862C64.8356 324.072 65.2296 324.176 65.7064 324.176ZM70.5905 325.069V323.953H70.8746C71.1079 323.953 71.3024 323.908 71.458 323.816C71.6135 323.722 71.7387 323.558 71.8334 323.324C71.9314 323.087 72.0058 322.759 72.0566 322.34C72.1107 321.917 72.1496 321.38 72.1732 320.727L72.3153 317.277H77.5101V325.069H76.3128V318.393H73.4516L73.3299 321.173C73.3028 321.812 73.2453 322.376 73.1574 322.863C73.0729 323.346 72.9427 323.752 72.7668 324.08C72.5943 324.408 72.3643 324.655 72.0769 324.821C71.7894 324.986 71.4292 325.069 70.9963 325.069H70.5905ZM80.7416 320.098H82.9737C83.8868 320.098 84.5852 320.329 85.0689 320.793C85.5525 321.256 85.7943 321.843 85.7943 322.553C85.7943 323.02 85.6861 323.444 85.4696 323.826C85.2532 324.205 84.9353 324.508 84.5159 324.735C84.0965 324.958 83.5825 325.069 82.9737 325.069H79.7067V317.277H80.9039V323.953H82.9737C83.4472 323.953 83.8361 323.828 84.1405 323.578C84.4449 323.328 84.5971 323.006 84.5971 322.614C84.5971 322.201 84.4449 321.865 84.1405 321.604C83.8361 321.344 83.4472 321.214 82.9737 321.214H80.7416V320.098ZM92.8318 320.625V321.741H88.5299V320.625H92.8318ZM88.814 317.277V325.069H87.6168V317.277H88.814ZM93.745 317.277V325.069H92.5477V317.277H93.745ZM95.9314 325.069V317.277H97.1287V325.069H95.9314ZM96.5402 315.978C96.3069 315.978 96.1056 315.899 95.9365 315.74C95.7708 315.581 95.6879 315.39 95.6879 315.167C95.6879 314.944 95.7708 314.753 95.9365 314.594C96.1056 314.435 96.3069 314.355 96.5402 314.355C96.7736 314.355 96.9731 314.435 97.1388 314.594C97.3079 314.753 97.3925 314.944 97.3925 315.167C97.3925 315.39 97.3079 315.581 97.1388 315.74C96.9731 315.899 96.7736 315.978 96.5402 315.978ZM106.505 325.232C105.774 325.232 105.145 325.059 104.618 324.714C104.09 324.369 103.684 323.894 103.4 323.289C103.116 322.683 102.974 321.992 102.974 321.214C102.974 320.422 103.119 319.724 103.41 319.119C103.705 318.51 104.114 318.035 104.638 317.693C105.166 317.348 105.781 317.176 106.485 317.176C107.032 317.176 107.526 317.277 107.966 317.48C108.406 317.683 108.766 317.967 109.046 318.332C109.327 318.698 109.501 319.124 109.569 319.611H108.372C108.28 319.256 108.078 318.941 107.763 318.667C107.452 318.39 107.032 318.251 106.505 318.251C106.038 318.251 105.629 318.373 105.277 318.616C104.929 318.857 104.657 319.196 104.46 319.636C104.268 320.072 104.171 320.585 104.171 321.173C104.171 321.775 104.266 322.299 104.455 322.746C104.648 323.192 104.919 323.539 105.267 323.786C105.619 324.033 106.031 324.156 106.505 324.156C106.816 324.156 107.098 324.102 107.352 323.994C107.606 323.886 107.82 323.73 107.996 323.527C108.172 323.324 108.297 323.081 108.372 322.797H109.569C109.501 323.257 109.334 323.671 109.067 324.04C108.803 324.405 108.453 324.696 108.017 324.912C107.584 325.125 107.08 325.232 106.505 325.232ZM114.485 325.232C113.781 325.232 113.164 325.064 112.633 324.729C112.105 324.395 111.693 323.926 111.395 323.324C111.101 322.722 110.954 322.019 110.954 321.214C110.954 320.402 111.101 319.694 111.395 319.088C111.693 318.483 112.105 318.013 112.633 317.678C113.164 317.343 113.781 317.176 114.485 317.176C115.188 317.176 115.804 317.343 116.331 317.678C116.862 318.013 117.275 318.483 117.569 319.088C117.867 319.694 118.016 320.402 118.016 321.214C118.016 322.019 117.867 322.722 117.569 323.324C117.275 323.926 116.862 324.395 116.331 324.729C115.804 325.064 115.188 325.232 114.485 325.232ZM114.485 324.156C115.019 324.156 115.459 324.019 115.804 323.745C116.149 323.471 116.404 323.111 116.57 322.665C116.735 322.218 116.818 321.735 116.818 321.214C116.818 320.693 116.735 320.208 116.57 319.758C116.404 319.308 116.149 318.945 115.804 318.667C115.459 318.39 115.019 318.251 114.485 318.251C113.95 318.251 113.511 318.39 113.166 318.667C112.821 318.945 112.565 319.308 112.4 319.758C112.234 320.208 112.151 320.693 112.151 321.214C112.151 321.735 112.234 322.218 112.4 322.665C112.565 323.111 112.821 323.471 113.166 323.745C113.511 324.019 113.95 324.156 114.485 324.156ZM119.153 325.069V323.953H119.437C119.671 323.953 119.865 323.908 120.021 323.816C120.176 323.722 120.301 323.558 120.396 323.324C120.494 323.087 120.569 322.759 120.619 322.34C120.673 321.917 120.712 321.38 120.736 320.727L120.878 317.277H126.073V325.069H124.876V318.393H122.014L121.893 321.173C121.866 321.812 121.808 322.376 121.72 322.863C121.636 323.346 121.505 323.752 121.329 324.08C121.157 324.408 120.927 324.655 120.64 324.821C120.352 324.986 119.992 325.069 119.559 325.069H119.153ZM128.269 325.069V317.277H129.467V325.069H128.269ZM128.878 315.978C128.645 315.978 128.444 315.899 128.274 315.74C128.109 315.581 128.026 315.39 128.026 315.167C128.026 314.944 128.109 314.753 128.274 314.594C128.444 314.435 128.645 314.355 128.878 314.355C129.111 314.355 129.311 314.435 129.477 314.594C129.646 314.753 129.73 314.944 129.73 315.167C129.73 315.39 129.646 315.581 129.477 315.74C129.311 315.899 129.111 315.978 128.878 315.978Z" fill="#777575"/>
<path d="M423.34 114H213.66C207.773 114 203 118.773 203 124.66V325.918C203 331.806 207.773 336.578 213.66 336.578H423.34C429.227 336.578 434 331.806 434 325.918V124.66C434 118.773 429.227 114 423.34 114Z" fill="#F9FAFC"/>
<path d="M372.15 146.484H266.406V148.904H372.15V146.484Z" fill="#5DBD6D"/>
<path d="M354.057 151.545H284.48V153.965H354.057V151.545Z" fill="#5DBD6D"/>
<path d="M350.942 205.194C348.693 206.471 346.192 207.2 343.629 207.325C341.066 207.449 338.509 206.967 336.155 205.914C333.8 204.86 331.71 203.265 330.043 201.248C328.377 199.232 327.179 196.848 326.541 194.28C325.902 191.712 325.841 189.026 326.361 186.43C326.881 183.833 327.969 181.393 329.541 179.298C331.113 177.202 333.128 175.506 335.432 174.339C337.736 173.172 340.268 172.565 342.833 172.564V189.954L350.942 205.194Z" fill="#263238"/>
<path d="M352.809 175.923L342.834 189.923V172.533C346.425 172.525 349.924 173.714 352.809 175.923Z" fill="#5DBD6D"/>
<path d="M359.66 189.925C359.666 194.293 358.073 198.501 355.199 201.704L342.834 189.925L352.809 175.925C354.935 177.538 356.663 179.646 357.853 182.079C359.043 184.511 359.662 187.199 359.66 189.925Z" fill="#A6A6A6"/>
<path d="M361.246 209.773C360.022 211.143 358.591 212.298 357.008 213.193L348.91 197.953L361.246 209.773Z" fill="#455A64"/>
<path d="M297.426 173.193L292.811 189.923V207.313C288.349 207.313 284.069 205.481 280.914 202.219C277.758 198.958 275.985 194.535 275.985 189.923C275.985 185.311 277.758 180.888 280.914 177.627C284.069 174.365 288.349 172.533 292.811 172.533C294.371 172.536 295.924 172.758 297.426 173.193Z" fill="#A6A6A6"/>
<path d="M302.767 203.924C299.887 206.129 296.396 207.318 292.811 207.314V189.924L302.767 203.924Z" fill="#263238"/>
<path d="M309.598 189.924C309.601 192.651 308.981 195.34 307.789 197.772C306.597 200.205 304.867 202.313 302.738 203.924L292.782 189.924L305.864 178.994C308.289 182.084 309.608 185.945 309.598 189.924Z" fill="#455A64"/>
<path d="M309.598 173.363L296.546 184.293L301.171 167.563C304.49 168.556 307.432 170.581 309.598 173.363Z" fill="#5DBD6D"/>
<path d="M242.778 172.533V189.923L231.448 202.773C228.941 200.41 227.183 197.319 226.406 193.905C225.63 190.491 225.869 186.914 227.095 183.643C228.32 180.373 230.474 177.562 233.273 175.579C236.072 173.596 239.385 172.535 242.778 172.533Z" fill="#455A64"/>
<path d="M254.825 177.783L242.779 189.923V172.533C245.024 172.531 247.248 172.994 249.317 173.896C251.386 174.797 253.259 176.119 254.825 177.783Z" fill="#5DBD6D"/>
<path d="M259.604 189.924C259.607 192.505 259.051 195.054 257.978 197.384C256.905 199.715 255.341 201.768 253.402 203.394L242.759 189.924L254.805 177.784C257.879 181.027 259.602 185.385 259.604 189.924Z" fill="#A6A6A6"/>
<path d="M253.403 207.953C250.278 210.585 246.343 211.969 242.314 211.856C238.285 211.742 234.43 210.137 231.449 207.333L242.779 194.483L253.403 207.953Z" fill="#263238"/>
<path d="M392.866 172.533V207.313C388.403 207.313 384.124 205.481 380.968 202.219C377.813 198.958 376.04 194.535 376.04 189.923C376.04 185.311 377.813 180.888 380.968 177.627C384.124 174.365 388.403 172.533 392.866 172.533Z" fill="#5DBD6D"/>
<path d="M397.113 173.093L392.866 189.923V172.533C394.299 172.534 395.726 172.723 397.113 173.093Z" fill="#263238"/>
<path d="M412.594 188.925C412.596 191.105 412.199 193.266 411.424 195.294L395.769 188.925L400.016 172.095C403.618 173.068 406.807 175.247 409.082 178.293C411.358 181.338 412.593 185.077 412.594 188.925Z" fill="#455A64"/>
<path d="M408.521 196.294C407.278 199.537 405.121 202.32 402.33 204.281C399.538 206.243 396.241 207.292 392.866 207.294V189.924L408.521 196.294Z" fill="#A6A6A6"/>
<path d="M254.66 217.533H235.019V219.483H254.66V217.533Z" fill="#5DBD6D"/>
<path d="M248.052 221.604H235.019V223.553H248.052V221.604Z" fill="#5DBD6D"/>
<path d="M231.836 217.514H225.953V223.594H231.836V217.514Z" fill="#455A64"/>
<path d="M304.693 217.533H285.052V219.483H304.693V217.533Z" fill="#5DBD6D"/>
<path d="M298.085 221.604H285.052V223.553H298.085V221.604Z" fill="#5DBD6D"/>
<path d="M281.868 217.514H275.985V223.594H281.868V217.514Z" fill="#A6A6A6"/>
<path d="M354.725 217.533H335.083V219.483H354.725V217.533Z" fill="#5DBD6D"/>
<path d="M348.116 221.604H335.083V223.553H348.116V221.604Z" fill="#5DBD6D"/>
<path d="M331.9 217.514H326.018V223.594H331.9V217.514Z" fill="#263238"/>
<path d="M404.757 217.533H385.116V219.483H404.757V217.533Z" fill="#5DBD6D"/>
<path d="M398.149 221.604H385.116V223.553H398.149V221.604Z" fill="#5DBD6D"/>
<path d="M381.933 217.514H376.05V223.594H381.933V217.514Z" fill="#5DBD6D"/>
<path d="M224.656 241.964L270.131 241.844C285.283 241.844 300.445 241.844 315.607 241.964C300.455 242.074 285.293 242.044 270.131 242.094L224.656 241.964Z" fill="#5DBD6D"/>
<path d="M224.656 245.793L270.131 245.673C285.283 245.673 300.445 245.673 315.607 245.793C300.455 245.903 285.293 245.883 270.131 245.923L224.656 245.793Z" fill="#5DBD6D"/>
<path d="M224.656 249.633L270.131 249.503C285.283 249.553 300.445 249.503 315.607 249.633C300.455 249.733 285.293 249.713 270.131 249.753L224.656 249.633Z" fill="#5DBD6D"/>
<path d="M224.656 253.463L270.131 253.333C285.283 253.383 300.445 253.333 315.607 253.463C300.455 253.573 285.293 253.543 270.131 253.583L224.656 253.463Z" fill="#5DBD6D"/>
<path d="M224.656 257.293L270.131 257.173C285.283 257.173 300.445 257.173 315.607 257.293C300.455 257.403 285.293 257.373 270.131 257.423L224.656 257.293Z" fill="#5DBD6D"/>
<path d="M224.656 261.123L270.131 261.003C285.283 261.003 300.445 261.003 315.607 261.123C300.455 261.233 285.293 261.213 270.131 261.253L224.656 261.123Z" fill="#5DBD6D"/>
<path d="M224.656 264.962L270.131 264.832C285.283 264.882 300.445 264.832 315.607 264.962C300.455 265.062 285.293 265.042 270.131 265.082L224.656 264.962Z" fill="#5DBD6D"/>
<path d="M224.656 268.793L270.131 268.663C285.283 268.713 300.445 268.663 315.607 268.793C300.455 268.903 285.293 268.873 270.131 268.913L224.656 268.793Z" fill="#5DBD6D"/>
<path d="M224.656 272.624L270.131 272.504C285.283 272.504 300.445 272.504 315.607 272.624C300.455 272.734 285.293 272.704 270.131 272.754L224.656 272.624Z" fill="#5DBD6D"/>
<path d="M224.656 276.453L270.131 276.333C285.283 276.333 300.445 276.333 315.607 276.453C300.455 276.563 285.293 276.543 270.131 276.583L224.656 276.453Z" fill="#5DBD6D"/>
<path d="M224.656 280.293L270.131 280.163C285.283 280.213 300.445 280.163 315.607 280.293C300.455 280.393 285.293 280.373 270.131 280.413L224.656 280.293Z" fill="#5DBD6D"/>
<path d="M224.656 284.123L270.131 283.993C285.283 283.993 300.445 283.993 315.607 284.123C300.455 284.233 285.293 284.203 270.131 284.243L224.656 284.123Z" fill="#5DBD6D"/>
<path d="M224.656 287.953L270.131 287.833C285.283 287.833 300.445 287.833 315.607 287.953C300.455 288.063 285.293 288.033 270.131 288.083L224.656 287.953Z" fill="#5DBD6D"/>
<path d="M224.656 291.783L270.131 291.663C285.283 291.663 300.445 291.663 315.607 291.783C300.455 291.893 285.293 291.873 270.131 291.913L224.656 291.783Z" fill="#5DBD6D"/>
<path d="M224.656 295.623L270.131 295.493C285.283 295.493 300.445 295.493 315.607 295.623C300.455 295.723 285.293 295.703 270.131 295.743L224.656 295.623Z" fill="#5DBD6D"/>
<path d="M241.173 268.793H234.274V300.093H241.173V268.793Z" fill="#5DBD6D"/>
<path d="M253.964 255.553H247.065V300.082H253.964V255.553Z" fill="#455A64"/>
<path d="M266.755 265.093H259.856V300.092H266.755V265.093Z" fill="#A6A6A6"/>
<path d="M279.546 253.463H272.647V300.092H279.546V253.463Z" fill="#5DBD6D"/>
<path d="M292.337 259.713H285.438V300.082H292.337V259.713Z" fill="#455A64"/>
<path d="M305.128 282.593H298.229V300.093H305.128V282.593Z" fill="#A6A6A6"/>
<path d="M227.124 239.273L227.308 254.483L227.443 269.683C227.53 279.813 227.549 289.953 227.569 300.083L227.124 299.623H249.242L271.36 299.683L293.469 299.833L315.587 300.113L293.469 300.383L271.36 300.533L249.242 300.593H227.124H226.669V300.123C226.669 289.996 226.711 279.863 226.795 269.723L226.921 254.523L227.124 239.273Z" fill="#5DBD6D"/>
<path d="M241.173 303.303H234.274V303.943H241.173V303.303Z" fill="#5DBD6D"/>
<path d="M253.964 303.303H247.065V303.943H253.964V303.303Z" fill="#5DBD6D"/>
<path d="M266.755 303.303H259.856V303.943H266.755V303.303Z" fill="#5DBD6D"/>
<path d="M279.546 303.303H272.647V303.943H279.546V303.303Z" fill="#5DBD6D"/>
<path d="M292.337 303.303H285.438V303.943H292.337V303.303Z" fill="#5DBD6D"/>
<path d="M305.128 303.303H298.229V303.943H305.128V303.303Z" fill="#5DBD6D"/>
<path d="M412.042 256.103H336.138V264.622H412.042V256.103Z" fill="#F0F0F0"/>
<path d="M372.257 258.523H338.886V262.213H372.257V258.523Z" fill="#455A64"/>
<path d="M325.505 260.634C325.519 260.899 325.431 261.159 325.259 261.357C325.088 261.555 324.847 261.674 324.591 261.689C324.334 261.703 324.082 261.612 323.891 261.435C323.7 261.257 323.584 261.009 323.57 260.744C323.565 260.664 323.565 260.584 323.57 260.504C323.568 260.218 323.614 259.933 323.705 259.664C323.802 259.381 323.981 259.137 324.218 258.964C324.395 258.847 324.599 258.782 324.808 258.774C324.838 258.772 324.867 258.777 324.894 258.787C324.922 258.798 324.947 258.813 324.969 258.834C324.99 258.854 325.008 258.879 325.02 258.906C325.032 258.934 325.039 258.963 325.041 258.994C325.041 259.054 325.019 259.112 324.98 259.157C324.94 259.201 324.886 259.229 324.828 259.234C324.697 259.231 324.569 259.269 324.46 259.344C324.353 259.415 324.266 259.516 324.209 259.634L324.151 259.734C324.273 259.681 324.405 259.654 324.538 259.654C324.791 259.654 325.034 259.756 325.215 259.939C325.396 260.123 325.5 260.372 325.505 260.634ZM325.07 260.634C325.07 260.49 325.015 260.353 324.917 260.252C324.819 260.151 324.686 260.094 324.547 260.094C324.409 260.094 324.276 260.151 324.178 260.252C324.08 260.353 324.025 260.49 324.025 260.634C324.025 260.777 324.08 260.914 324.178 261.015C324.276 261.117 324.409 261.174 324.547 261.174C324.686 261.174 324.819 261.117 324.917 261.015C325.015 260.914 325.07 260.777 325.07 260.634Z" fill="#263238"/>
<path d="M326.124 260.193C326.117 259.839 326.211 259.491 326.395 259.193C326.468 259.057 326.574 258.945 326.704 258.866C326.833 258.787 326.98 258.746 327.13 258.746C327.28 258.746 327.427 258.787 327.557 258.866C327.686 258.945 327.793 259.057 327.865 259.193C328.051 259.49 328.142 259.839 328.127 260.193C328.14 260.546 328.049 260.895 327.865 261.193C327.793 261.328 327.686 261.441 327.557 261.519C327.427 261.598 327.28 261.639 327.13 261.639C326.98 261.639 326.833 261.598 326.704 261.519C326.574 261.441 326.468 261.328 326.395 261.193C326.212 260.894 326.118 260.546 326.124 260.193ZM327.691 260.193C327.698 259.935 327.63 259.681 327.498 259.463C327.461 259.393 327.408 259.334 327.344 259.291C327.28 259.247 327.206 259.221 327.13 259.213C327.053 259.221 326.979 259.248 326.913 259.292C326.848 259.335 326.793 259.394 326.753 259.463C326.628 259.684 326.564 259.937 326.569 260.193C326.566 260.449 326.629 260.701 326.753 260.923C326.793 260.992 326.848 261.05 326.913 261.093C326.979 261.137 327.053 261.164 327.13 261.173C327.206 261.165 327.28 261.138 327.344 261.094C327.408 261.051 327.461 260.992 327.498 260.923C327.629 260.704 327.696 260.45 327.691 260.193Z" fill="#263238"/>
<path d="M328.949 259.462C328.938 259.367 328.946 259.27 328.974 259.178C329.002 259.086 329.048 259.001 329.11 258.929C329.171 258.857 329.247 258.8 329.332 258.76C329.417 258.721 329.509 258.7 329.602 258.7C329.695 258.7 329.787 258.721 329.872 258.76C329.957 258.8 330.033 258.857 330.095 258.929C330.157 259.001 330.203 259.086 330.23 259.178C330.258 259.27 330.267 259.367 330.255 259.462C330.261 259.556 330.248 259.649 330.217 259.737C330.186 259.824 330.139 259.905 330.077 259.973C330.016 260.041 329.942 260.096 329.859 260.133C329.777 260.171 329.688 260.191 329.597 260.192C329.508 260.191 329.419 260.171 329.337 260.133C329.255 260.096 329.181 260.041 329.121 259.972C329.06 259.904 329.013 259.823 328.984 259.736C328.954 259.648 328.943 259.555 328.949 259.462ZM329.917 259.462C329.928 259.365 329.902 259.266 329.844 259.188C329.786 259.109 329.701 259.057 329.607 259.043C329.423 259.043 329.307 259.232 329.307 259.452C329.307 259.682 329.433 259.862 329.617 259.862C329.801 259.862 329.859 259.692 329.859 259.462H329.917ZM329.414 261.382L331.233 258.812C331.247 258.789 331.267 258.77 331.291 258.758C331.315 258.745 331.341 258.74 331.368 258.743C331.409 258.743 331.448 258.759 331.478 258.789C331.507 258.819 331.523 258.86 331.523 258.903C331.533 258.935 331.533 258.97 331.523 259.002L329.704 261.572C329.687 261.595 329.665 261.614 329.64 261.626C329.614 261.638 329.587 261.644 329.559 261.642C329.518 261.642 329.478 261.626 329.449 261.596C329.42 261.566 329.404 261.525 329.404 261.482C329.378 261.455 329.361 261.42 329.356 261.382H329.414ZM330.633 260.932C330.627 260.839 330.641 260.746 330.671 260.658C330.702 260.571 330.749 260.49 330.811 260.422C330.872 260.354 330.946 260.299 331.029 260.262C331.111 260.224 331.2 260.204 331.291 260.202C331.38 260.204 331.469 260.224 331.551 260.262C331.633 260.299 331.707 260.354 331.767 260.423C331.828 260.491 331.875 260.572 331.904 260.659C331.934 260.747 331.946 260.84 331.939 260.932C331.95 261.028 331.942 261.125 331.914 261.217C331.886 261.309 331.84 261.394 331.778 261.466C331.717 261.538 331.641 261.595 331.556 261.635C331.471 261.674 331.379 261.695 331.286 261.695C331.193 261.695 331.101 261.674 331.016 261.635C330.931 261.595 330.855 261.538 330.793 261.466C330.731 261.394 330.685 261.309 330.658 261.217C330.63 261.125 330.621 261.028 330.633 260.932ZM331.6 260.932C331.6 260.702 331.475 260.522 331.291 260.522C331.107 260.522 331 260.702 331 260.932C331 261.172 331.126 261.352 331.3 261.352C331.474 261.352 331.533 261.192 331.533 260.932H331.6Z" fill="#263238"/>
<path d="M412.042 243.593H336.138V252.113H412.042V243.593Z" fill="#F0F0F0"/>
<path d="M355.344 246.014H338.886V249.704H355.344V246.014Z" fill="#5DBD6D"/>
<path d="M325.079 247.373C325.172 247.466 325.247 247.578 325.298 247.702C325.348 247.826 325.375 247.959 325.375 248.093C325.375 248.228 325.348 248.361 325.298 248.484C325.247 248.608 325.172 248.72 325.079 248.813C324.988 248.909 324.879 248.985 324.76 249.036C324.64 249.088 324.512 249.114 324.382 249.113C324.254 249.113 324.127 249.086 324.009 249.034C323.891 248.983 323.785 248.908 323.695 248.813C323.654 248.769 323.631 248.71 323.631 248.648C323.631 248.587 323.654 248.528 323.695 248.483C323.715 248.461 323.739 248.444 323.765 248.432C323.792 248.42 323.821 248.414 323.85 248.414C323.879 248.414 323.907 248.42 323.934 248.432C323.961 248.444 323.985 248.461 324.005 248.483C324.054 248.535 324.113 248.575 324.177 248.603C324.242 248.63 324.312 248.644 324.382 248.643C324.454 248.645 324.525 248.631 324.591 248.604C324.658 248.576 324.718 248.535 324.769 248.483C324.819 248.432 324.858 248.371 324.885 248.304C324.911 248.237 324.925 248.166 324.924 248.093C324.926 248.02 324.914 247.948 324.887 247.881C324.86 247.814 324.82 247.753 324.769 247.703C324.72 247.652 324.661 247.611 324.596 247.584C324.531 247.556 324.462 247.542 324.392 247.543C324.36 247.544 324.329 247.537 324.3 247.523C324.272 247.509 324.247 247.489 324.227 247.463C324.206 247.442 324.189 247.416 324.177 247.388C324.166 247.359 324.16 247.329 324.16 247.298C324.16 247.267 324.166 247.237 324.177 247.209C324.189 247.18 324.206 247.155 324.227 247.133L324.633 246.703H323.985C323.926 246.703 323.87 246.679 323.828 246.636C323.786 246.593 323.763 246.534 323.763 246.473C323.763 246.412 323.786 246.354 323.828 246.311C323.87 246.267 323.926 246.243 323.985 246.243H325.156C325.215 246.243 325.272 246.267 325.313 246.311C325.355 246.354 325.378 246.412 325.378 246.473C325.388 246.509 325.388 246.547 325.378 246.583C325.381 246.603 325.381 246.623 325.378 246.643L324.885 247.173C324.959 247.229 325.025 247.296 325.079 247.373Z" fill="#263238"/>
<path d="M326.046 247.684C326.035 247.33 326.129 246.981 326.317 246.684C326.388 246.546 326.494 246.43 326.623 246.35C326.753 246.269 326.901 246.227 327.053 246.227C327.204 246.227 327.352 246.269 327.482 246.35C327.611 246.43 327.717 246.546 327.788 246.684C327.968 246.984 328.059 247.331 328.049 247.684C328.057 248.036 327.966 248.383 327.788 248.684C327.715 248.819 327.608 248.932 327.479 249.011C327.35 249.089 327.203 249.131 327.053 249.131C326.903 249.131 326.755 249.089 326.626 249.011C326.497 248.932 326.39 248.819 326.317 248.684C326.132 248.386 326.037 248.038 326.046 247.684ZM327.614 247.684C327.62 247.426 327.553 247.172 327.42 246.954C327.304 246.784 327.178 246.694 327.053 246.704C326.974 246.709 326.899 246.735 326.833 246.779C326.767 246.823 326.713 246.883 326.675 246.954C326.551 247.175 326.487 247.428 326.491 247.684C326.487 247.937 326.55 248.186 326.675 248.404C326.712 248.477 326.766 248.538 326.832 248.584C326.898 248.629 326.974 248.657 327.053 248.664C327.13 248.656 327.204 248.628 327.269 248.583C327.333 248.537 327.385 248.476 327.42 248.404C327.536 248.184 327.586 247.934 327.565 247.684H327.614Z" fill="#263238"/>
<path d="M328.775 246.954C328.764 246.858 328.772 246.761 328.8 246.669C328.827 246.577 328.874 246.493 328.935 246.421C328.997 246.349 329.073 246.291 329.158 246.251C329.243 246.212 329.335 246.191 329.428 246.191C329.521 246.191 329.613 246.212 329.698 246.251C329.783 246.291 329.859 246.349 329.921 246.421C329.982 246.493 330.029 246.577 330.056 246.669C330.084 246.761 330.092 246.858 330.081 246.954C330.086 247.047 330.073 247.14 330.043 247.228C330.012 247.315 329.965 247.396 329.903 247.464C329.842 247.532 329.767 247.587 329.685 247.625C329.602 247.662 329.513 247.683 329.423 247.684C329.333 247.683 329.245 247.662 329.163 247.625C329.081 247.587 329.007 247.532 328.946 247.464C328.886 247.395 328.839 247.315 328.81 247.227C328.78 247.139 328.768 247.046 328.775 246.954ZM329.742 246.954C329.742 246.724 329.617 246.534 329.442 246.534C329.268 246.534 329.143 246.724 329.143 246.944C329.143 247.174 329.268 247.354 329.452 247.354C329.636 247.354 329.723 247.194 329.723 246.954H329.742ZM329.249 248.874L331.068 246.304C331.082 246.279 331.101 246.259 331.125 246.245C331.149 246.231 331.176 246.223 331.203 246.224C331.244 246.224 331.284 246.241 331.313 246.271C331.342 246.301 331.358 246.341 331.358 246.384C331.372 246.419 331.372 246.458 331.358 246.494L329.539 249.064C329.525 249.087 329.505 249.106 329.481 249.118C329.457 249.131 329.43 249.136 329.404 249.134C329.383 249.134 329.363 249.13 329.345 249.122C329.326 249.113 329.309 249.102 329.294 249.087C329.28 249.072 329.269 249.054 329.261 249.035C329.253 249.015 329.249 248.995 329.249 248.974C329.231 248.944 329.225 248.908 329.23 248.874H329.249ZM330.468 248.424C330.457 248.328 330.465 248.231 330.493 248.139C330.521 248.047 330.567 247.963 330.629 247.891C330.69 247.819 330.766 247.761 330.851 247.721C330.936 247.682 331.028 247.661 331.121 247.661C331.214 247.661 331.306 247.682 331.391 247.721C331.476 247.761 331.552 247.819 331.614 247.891C331.675 247.963 331.722 248.047 331.749 248.139C331.777 248.231 331.786 248.328 331.774 248.424C331.786 248.519 331.777 248.616 331.749 248.708C331.722 248.8 331.675 248.885 331.614 248.957C331.552 249.029 331.476 249.087 331.391 249.126C331.306 249.166 331.214 249.186 331.121 249.186C331.028 249.186 330.936 249.166 330.851 249.126C330.766 249.087 330.69 249.029 330.629 248.957C330.567 248.885 330.521 248.8 330.493 248.708C330.465 248.616 330.457 248.519 330.468 248.424ZM331.436 248.424C331.436 248.194 331.31 248.004 331.126 248.004C330.942 248.004 330.826 248.194 330.826 248.414C330.815 248.512 330.841 248.61 330.899 248.688C330.957 248.767 331.041 248.819 331.136 248.834C331.291 248.834 331.407 248.644 331.407 248.424H331.436Z" fill="#263238"/>
<path d="M412.042 293.643H336.138V302.162H412.042V293.643Z" fill="#F0F0F0"/>
<path d="M395.836 296.063H338.886V299.753H395.836V296.063Z" fill="#5DBD6D"/>
<path d="M323.589 297.283C323.582 297.151 323.601 297.02 323.644 296.896C323.686 296.772 323.752 296.658 323.838 296.561C323.923 296.463 324.026 296.384 324.141 296.328C324.256 296.272 324.381 296.239 324.508 296.233C324.764 296.219 325.016 296.312 325.206 296.49C325.3 296.578 325.377 296.685 325.432 296.804C325.486 296.923 325.517 297.051 325.524 297.183C325.528 297.259 325.528 297.336 325.524 297.413C325.527 297.699 325.481 297.983 325.388 298.253C325.294 298.537 325.115 298.782 324.875 298.953C324.701 299.076 324.496 299.146 324.285 299.153C324.226 299.153 324.17 299.128 324.128 299.085C324.086 299.042 324.063 298.984 324.063 298.923C324.063 298.862 324.086 298.803 324.128 298.76C324.17 298.717 324.226 298.693 324.285 298.693C324.415 298.691 324.542 298.653 324.653 298.583C324.758 298.509 324.845 298.409 324.904 298.293C324.926 298.259 324.943 298.222 324.953 298.183C324.836 298.244 324.707 298.275 324.576 298.273C324.448 298.275 324.321 298.252 324.202 298.203C324.083 298.155 323.974 298.083 323.882 297.99C323.79 297.898 323.717 297.788 323.667 297.667C323.616 297.545 323.59 297.415 323.589 297.283ZM324.024 297.283C324.024 297.426 324.079 297.563 324.177 297.665C324.275 297.766 324.408 297.823 324.546 297.823C324.685 297.823 324.818 297.766 324.916 297.665C325.014 297.563 325.069 297.426 325.069 297.283C325.069 297.139 325.014 297.002 324.916 296.901C324.818 296.8 324.685 296.743 324.546 296.743C324.408 296.743 324.275 296.8 324.177 296.901C324.079 297.002 324.024 297.139 324.024 297.283Z" fill="#263238"/>
<path d="M326.124 297.732C326.117 297.378 326.211 297.03 326.395 296.732C326.466 296.594 326.571 296.478 326.701 296.398C326.831 296.317 326.979 296.274 327.13 296.274C327.281 296.274 327.43 296.317 327.559 296.398C327.689 296.478 327.795 296.594 327.865 296.732C328.051 297.029 328.142 297.379 328.127 297.732C328.139 298.085 328.048 298.433 327.865 298.732C327.793 298.867 327.686 298.98 327.557 299.059C327.427 299.137 327.28 299.178 327.13 299.178C326.98 299.178 326.833 299.137 326.704 299.059C326.574 298.98 326.468 298.867 326.395 298.732C326.214 298.432 326.12 298.085 326.124 297.732ZM327.691 297.732C327.699 297.474 327.631 297.22 327.498 297.002C327.382 296.832 327.256 296.742 327.13 296.752C327.004 296.762 326.879 296.832 326.753 297.002C326.632 297.223 326.569 297.473 326.569 297.727C326.569 297.981 326.632 298.231 326.753 298.452C326.791 298.523 326.845 298.584 326.911 298.629C326.977 298.675 327.052 298.703 327.13 298.712C327.208 298.704 327.282 298.676 327.346 298.63C327.41 298.585 327.463 298.524 327.498 298.452C327.63 298.237 327.698 297.986 327.691 297.732Z" fill="#263238"/>
<path d="M328.949 297.003C328.938 296.907 328.946 296.81 328.974 296.718C329.002 296.626 329.048 296.542 329.11 296.469C329.171 296.397 329.247 296.34 329.332 296.3C329.417 296.261 329.509 296.24 329.602 296.24C329.695 296.24 329.787 296.261 329.872 296.3C329.957 296.34 330.033 296.397 330.095 296.469C330.157 296.542 330.203 296.626 330.23 296.718C330.258 296.81 330.267 296.907 330.255 297.003C330.267 297.098 330.258 297.195 330.23 297.287C330.203 297.379 330.157 297.464 330.095 297.536C330.033 297.608 329.957 297.665 329.872 297.705C329.787 297.744 329.695 297.765 329.602 297.765C329.509 297.765 329.417 297.744 329.332 297.705C329.247 297.665 329.171 297.608 329.11 297.536C329.048 297.464 329.002 297.379 328.974 297.287C328.946 297.195 328.938 297.098 328.949 297.003ZM329.917 297.003C329.928 296.906 329.901 296.809 329.843 296.732C329.785 296.655 329.701 296.605 329.607 296.593C329.423 296.593 329.307 296.773 329.307 297.003C329.307 297.243 329.433 297.423 329.617 297.423C329.801 297.423 329.859 297.193 329.859 297.003H329.917ZM329.414 298.913L331.233 296.353C331.246 296.328 331.266 296.308 331.29 296.294C331.314 296.28 331.341 296.272 331.368 296.273C331.409 296.273 331.448 296.289 331.478 296.319C331.507 296.349 331.523 296.39 331.523 296.433C331.533 296.468 331.533 296.507 331.523 296.543L329.704 299.113C329.687 299.135 329.665 299.154 329.64 299.166C329.614 299.178 329.587 299.184 329.559 299.183C329.518 299.183 329.478 299.166 329.449 299.136C329.42 299.106 329.404 299.065 329.404 299.023C329.378 298.992 329.361 298.953 329.356 298.913H329.414ZM330.633 298.473C330.627 298.379 330.641 298.286 330.671 298.199C330.702 298.111 330.749 298.03 330.811 297.962C330.872 297.894 330.946 297.839 331.029 297.802C331.111 297.764 331.2 297.744 331.291 297.743C331.38 297.744 331.467 297.764 331.549 297.801C331.63 297.838 331.703 297.892 331.764 297.959C331.824 298.027 331.871 298.106 331.901 298.192C331.931 298.279 331.944 298.371 331.939 298.463C331.95 298.558 331.942 298.655 331.914 298.747C331.886 298.839 331.84 298.924 331.778 298.996C331.717 299.068 331.641 299.125 331.556 299.165C331.471 299.204 331.379 299.225 331.286 299.225C331.193 299.225 331.101 299.204 331.016 299.165C330.931 299.125 330.855 299.068 330.793 298.996C330.731 298.924 330.685 298.839 330.658 298.747C330.63 298.655 330.621 298.558 330.633 298.463V298.473ZM331.6 298.473C331.6 298.243 331.475 298.053 331.291 298.053C331.107 298.053 331 298.243 331 298.463C331 298.693 331.126 298.883 331.3 298.883C331.474 298.883 331.533 298.693 331.533 298.473H331.6Z" fill="#263238"/>
<path d="M412.042 281.134H336.138V289.654H412.042V281.134Z" fill="#F0F0F0"/>
<path d="M390.069 283.543H338.886V287.233H390.069V283.543Z" fill="#455A64"/>
<path d="M325.437 285.672C325.437 285.938 325.335 286.192 325.153 286.38C324.972 286.567 324.726 286.672 324.469 286.672C324.212 286.672 323.966 286.567 323.785 286.38C323.603 286.192 323.501 285.938 323.501 285.672C323.504 285.512 323.545 285.355 323.619 285.214C323.693 285.073 323.799 284.952 323.927 284.862C323.839 284.745 323.791 284.601 323.792 284.452C323.792 284.272 323.861 284.099 323.984 283.972C324.108 283.844 324.275 283.772 324.45 283.772C324.624 283.772 324.792 283.844 324.915 283.972C325.038 284.099 325.108 284.272 325.108 284.452C325.108 284.601 325.061 284.745 324.972 284.862C325.108 284.948 325.221 285.066 325.302 285.207C325.383 285.349 325.429 285.508 325.437 285.672ZM325.001 285.672C325.001 285.568 324.971 285.465 324.915 285.378C324.858 285.291 324.778 285.223 324.685 285.183C324.591 285.143 324.488 285.132 324.388 285.153C324.289 285.173 324.197 285.224 324.126 285.298C324.054 285.372 324.005 285.466 323.985 285.569C323.966 285.672 323.976 285.778 324.015 285.875C324.053 285.972 324.119 286.055 324.203 286.113C324.288 286.171 324.387 286.202 324.488 286.202C324.624 286.202 324.755 286.147 324.851 286.047C324.947 285.948 325.001 285.813 325.001 285.672ZM324.266 284.452C324.264 284.498 324.275 284.544 324.299 284.583C324.322 284.622 324.356 284.653 324.396 284.672C324.437 284.691 324.482 284.697 324.526 284.689C324.569 284.681 324.61 284.66 324.642 284.629C324.674 284.597 324.696 284.556 324.706 284.511C324.715 284.466 324.711 284.42 324.695 284.377C324.678 284.334 324.65 284.298 324.613 284.272C324.576 284.246 324.533 284.232 324.488 284.232C324.431 284.232 324.376 284.255 324.334 284.296C324.293 284.337 324.268 284.393 324.266 284.452Z" fill="#263238"/>
<path d="M326.046 285.193C326.042 284.839 326.136 284.492 326.317 284.193C326.39 284.057 326.497 283.945 326.626 283.866C326.755 283.787 326.903 283.746 327.052 283.746C327.202 283.746 327.35 283.787 327.479 283.866C327.608 283.945 327.715 284.057 327.788 284.193C327.973 284.49 328.068 284.839 328.059 285.193C328.07 285.547 327.976 285.896 327.788 286.193C327.717 286.331 327.611 286.446 327.482 286.527C327.352 286.608 327.204 286.65 327.052 286.65C326.901 286.65 326.753 286.608 326.623 286.527C326.494 286.446 326.388 286.331 326.317 286.193C326.134 285.894 326.04 285.546 326.046 285.193ZM327.614 285.193C327.618 284.935 327.551 284.682 327.42 284.463C327.384 284.392 327.332 284.332 327.268 284.289C327.203 284.245 327.129 284.219 327.052 284.213C326.975 284.222 326.901 284.249 326.836 284.293C326.771 284.336 326.716 284.394 326.675 284.463C326.552 284.685 326.488 284.937 326.491 285.193C326.487 285.449 326.55 285.701 326.675 285.923C326.716 285.991 326.771 286.049 326.836 286.093C326.901 286.136 326.975 286.163 327.052 286.173C327.129 286.167 327.203 286.14 327.268 286.097C327.332 286.053 327.384 285.993 327.42 285.923C327.563 285.708 327.64 285.453 327.643 285.193H327.614Z" fill="#263238"/>
<path d="M328.852 284.492C328.841 284.396 328.85 284.299 328.877 284.207C328.905 284.116 328.951 284.031 329.013 283.959C329.075 283.887 329.151 283.829 329.235 283.789C329.32 283.75 329.412 283.729 329.506 283.729C329.599 283.729 329.691 283.75 329.776 283.789C329.861 283.829 329.936 283.887 329.998 283.959C330.06 284.031 330.106 284.116 330.134 284.207C330.161 284.299 330.17 284.396 330.159 284.492C330.17 284.587 330.161 284.684 330.134 284.776C330.106 284.868 330.06 284.953 329.998 285.025C329.936 285.097 329.861 285.155 329.776 285.194C329.691 285.234 329.599 285.254 329.506 285.254C329.412 285.254 329.32 285.234 329.235 285.194C329.151 285.155 329.075 285.097 329.013 285.025C328.951 284.953 328.905 284.868 328.877 284.776C328.85 284.684 328.841 284.587 328.852 284.492ZM329.82 284.492C329.82 284.262 329.694 284.072 329.51 284.072C329.327 284.072 329.21 284.262 329.21 284.482C329.21 284.712 329.336 284.902 329.52 284.902C329.704 284.902 329.81 284.712 329.81 284.492H329.82ZM329.317 286.402L331.136 283.832C331.15 283.808 331.17 283.789 331.194 283.777C331.218 283.765 331.245 283.759 331.271 283.762C331.292 283.762 331.312 283.766 331.331 283.774C331.349 283.782 331.366 283.794 331.381 283.809C331.395 283.824 331.407 283.841 331.414 283.861C331.422 283.88 331.426 283.901 331.426 283.922C331.436 283.958 331.436 283.996 331.426 284.032L329.607 286.592C329.591 286.616 329.569 286.636 329.544 286.649C329.519 286.663 329.491 286.671 329.462 286.672C329.442 286.672 329.422 286.668 329.403 286.66C329.384 286.652 329.367 286.64 329.353 286.625C329.338 286.61 329.327 286.592 329.319 286.573C329.311 286.554 329.307 286.533 329.307 286.512C329.298 286.476 329.298 286.438 329.307 286.402H329.317ZM330.536 285.952C330.531 285.858 330.544 285.765 330.574 285.676C330.605 285.588 330.652 285.507 330.714 285.438C330.775 285.369 330.849 285.313 330.932 285.274C331.014 285.236 331.103 285.214 331.194 285.212C331.284 285.213 331.372 285.233 331.454 285.271C331.536 285.309 331.61 285.364 331.671 285.432C331.732 285.5 331.778 285.581 331.808 285.669C331.837 285.756 331.849 285.849 331.842 285.942C331.847 286.035 331.834 286.128 331.804 286.216C331.773 286.304 331.726 286.384 331.664 286.452C331.603 286.52 331.529 286.575 331.446 286.613C331.364 286.65 331.275 286.671 331.184 286.672C331.095 286.672 331.006 286.653 330.923 286.616C330.841 286.58 330.766 286.526 330.705 286.459C330.643 286.391 330.596 286.311 330.565 286.224C330.534 286.137 330.521 286.044 330.526 285.952H330.536ZM331.504 285.952C331.504 285.722 331.378 285.532 331.194 285.532C331.01 285.532 330.904 285.722 330.904 285.942C330.904 286.172 331.029 286.352 331.204 286.352C331.378 286.352 331.484 286.192 331.484 285.952H331.504Z" fill="#263238"/>
<path d="M412.042 268.613H336.138V277.133H412.042V268.613Z" fill="#F0F0F0"/>
<path d="M382.329 271.032H338.886V274.722H382.329V271.032Z" fill="#5DBD6D"/>
<path d="M325.36 271.583L324.392 274.003C324.377 274.045 324.349 274.081 324.312 274.104C324.276 274.128 324.232 274.138 324.189 274.133H324.112C324.058 274.109 324.016 274.064 323.994 274.008C323.972 273.952 323.973 273.889 323.996 273.833L324.847 271.733H323.821C323.793 271.733 323.764 271.727 323.738 271.716C323.711 271.704 323.687 271.687 323.667 271.665C323.648 271.644 323.632 271.618 323.622 271.59C323.612 271.563 323.607 271.533 323.609 271.503C323.609 271.445 323.631 271.389 323.671 271.348C323.711 271.306 323.765 271.283 323.821 271.283H325.224H325.312V271.413C325.312 271.413 325.36 271.573 325.36 271.583Z" fill="#263238"/>
<path d="M325.824 272.703C325.817 272.349 325.912 272.002 326.095 271.703C326.173 271.57 326.283 271.459 326.413 271.381C326.543 271.302 326.689 271.258 326.84 271.253C326.988 271.26 327.131 271.305 327.258 271.383C327.385 271.462 327.49 271.572 327.566 271.703C327.754 271.999 327.848 272.349 327.837 272.703C327.847 273.057 327.752 273.406 327.566 273.703C327.49 273.834 327.385 273.944 327.258 274.023C327.131 274.101 326.988 274.146 326.84 274.153C326.689 274.148 326.543 274.104 326.413 274.025C326.283 273.946 326.173 273.836 326.095 273.703C325.913 273.404 325.818 273.056 325.824 272.703ZM327.392 272.703C327.395 272.447 327.331 272.195 327.208 271.973C327.176 271.898 327.124 271.834 327.058 271.789C326.992 271.745 326.914 271.721 326.835 271.721C326.756 271.721 326.679 271.745 326.613 271.789C326.546 271.834 326.494 271.898 326.463 271.973C326.336 272.194 326.269 272.446 326.269 272.703C326.269 272.96 326.336 273.212 326.463 273.433C326.494 273.508 326.546 273.572 326.613 273.616C326.679 273.661 326.756 273.685 326.835 273.685C326.914 273.685 326.992 273.661 327.058 273.616C327.124 273.572 327.176 273.508 327.208 273.433C327.331 273.211 327.395 272.959 327.392 272.703Z" fill="#263238"/>
<path d="M328.601 271.983C328.596 271.89 328.609 271.796 328.639 271.708C328.67 271.619 328.717 271.538 328.778 271.469C328.84 271.4 328.914 271.345 328.997 271.306C329.079 271.267 329.168 271.246 329.259 271.243C329.349 271.244 329.437 271.264 329.519 271.302C329.601 271.34 329.675 271.395 329.736 271.463C329.797 271.532 329.843 271.612 329.873 271.7C329.902 271.788 329.914 271.881 329.907 271.973C329.918 272.069 329.91 272.166 329.882 272.258C329.855 272.349 329.808 272.434 329.747 272.506C329.685 272.578 329.609 272.636 329.524 272.676C329.439 272.715 329.347 272.735 329.254 272.735C329.161 272.735 329.069 272.715 328.984 272.676C328.899 272.636 328.823 272.578 328.762 272.506C328.7 272.434 328.654 272.349 328.626 272.258C328.598 272.166 328.59 272.069 328.601 271.973V271.983ZM329.569 271.983C329.569 271.753 329.443 271.563 329.259 271.563C329.075 271.563 328.969 271.753 328.969 271.973C328.969 272.203 329.094 272.393 329.269 272.393C329.443 272.393 329.559 272.193 329.559 271.983H329.569ZM329.065 273.893L330.884 271.323C330.899 271.3 330.919 271.281 330.943 271.268C330.967 271.256 330.993 271.251 331.02 271.253C331.062 271.253 331.102 271.27 331.133 271.299C331.164 271.329 331.182 271.37 331.184 271.413C331.194 271.446 331.194 271.481 331.184 271.513L329.365 274.083C329.349 274.107 329.327 274.125 329.302 274.138C329.276 274.15 329.248 274.155 329.22 274.153C329.201 274.155 329.181 274.152 329.163 274.145C329.145 274.138 329.128 274.127 329.114 274.113C329.101 274.098 329.09 274.081 329.083 274.062C329.076 274.043 329.074 274.023 329.075 274.003C329.058 273.97 329.051 273.931 329.056 273.893H329.065ZM330.285 273.443C330.279 273.35 330.292 273.257 330.323 273.169C330.354 273.081 330.401 273.001 330.463 272.933C330.524 272.865 330.598 272.81 330.681 272.772C330.763 272.734 330.852 272.714 330.943 272.713C331.032 272.714 331.121 272.734 331.203 272.772C331.285 272.81 331.359 272.865 331.419 272.933C331.48 273.002 331.527 273.082 331.556 273.17C331.586 273.258 331.597 273.351 331.591 273.443C331.597 273.536 331.586 273.63 331.556 273.718C331.527 273.806 331.48 273.887 331.42 273.956C331.359 274.026 331.286 274.081 331.204 274.12C331.122 274.159 331.033 274.181 330.943 274.183C330.851 274.183 330.76 274.164 330.675 274.126C330.591 274.089 330.515 274.033 330.452 273.964C330.39 273.894 330.342 273.812 330.311 273.723C330.281 273.633 330.268 273.538 330.275 273.443H330.285ZM331.252 273.443C331.252 273.213 331.126 273.033 330.952 273.033C330.778 273.033 330.652 273.213 330.652 273.443C330.652 273.683 330.778 273.863 330.952 273.863C331.126 273.863 331.233 273.663 331.233 273.443H331.252Z" fill="#263238"/>
<path d="M166 133.206C167.1 134.082 169.41 136.15 169.85 137.412C171.133 135.309 174.36 130.682 177 129" stroke="#5DBD6D" stroke-width="1.29412" stroke-linecap="round" stroke-linejoin="round"/>
<path d="M166 179.618C167.1 180.494 169.41 182.562 169.85 183.824C171.133 181.721 174.36 177.094 177 175.412" stroke="#5DBD6D" stroke-width="1.29412" stroke-linecap="round" stroke-linejoin="round"/>
<path d="M166 226.03C167.1 226.906 169.41 228.974 169.85 230.236C171.133 228.133 174.36 223.507 177 221.824" stroke="#5DBD6D" stroke-width="1.29412" stroke-linecap="round" stroke-linejoin="round"/>
<path d="M166 272.442C167.1 273.318 169.41 275.386 169.85 276.648C171.133 274.545 174.36 269.919 177 268.236" stroke="#5DBD6D" stroke-width="1.29412" stroke-linecap="round" stroke-linejoin="round"/>
<path d="M166 318.854C167.1 319.731 169.41 321.798 169.85 323.06C171.133 320.957 174.36 316.331 177 314.648" stroke="#5DBD6D" stroke-width="1.29412" stroke-linecap="round" stroke-linejoin="round"/>
<rect x="0.5" y="0.5" width="444" height="395" rx="9.5" stroke="#ECEBEB"/>
</svg>
