<svg width="315" height="141" viewBox="0 0 315 141" fill="none" xmlns="http://www.w3.org/2000/svg">
<path d="M346.5 116C346.5 144.421 329.303 170.271 301.252 189.062C273.208 207.848 234.407 219.5 191.5 219.5C148.511 219.5 96.6287 211.965 57.9683 197.679C38.627 190.532 22.6972 181.732 12.825 171.425C2.99891 161.166 -0.782399 149.482 3.94099 136.338C24.5686 78.9395 70.384 43.3572 121.888 22.1119C173.4 0.863518 230.509 -6 273.5 -6C294.922 -6 310.108 -1.9406 320.871 4.9451C331.614 11.8185 338.049 21.5723 341.858 33.1694C345.676 44.7914 346.847 58.2414 347.053 72.4478C347.156 79.5456 347.018 86.8137 346.854 94.1222C346.835 94.9903 346.815 95.859 346.795 96.728C346.648 103.17 346.5 109.631 346.5 116Z" stroke="#6EC47C" stroke-width="2"/>
</svg>
