<svg width="50" height="50" viewBox="0 0 50 50" fill="none" xmlns="http://www.w3.org/2000/svg">
<rect width="50" height="50" rx="25" fill="#E9F6EB"/>
<path d="M29.9583 10.833C30.689 10.8329 31.4108 10.9944 32.0719 11.3058C32.733 11.6173 33.3171 12.071 33.7824 12.6346C34.2476 13.1981 34.5826 13.8575 34.7632 14.5656C34.9439 15.2737 34.9658 16.013 34.8273 16.7306L34.8061 16.8241C36.0386 17.2352 37.1161 18.0129 37.8945 19.0532C38.6728 20.0935 39.115 21.3467 39.1616 22.6451C39.2083 23.9435 38.8573 25.2251 38.1557 26.3186C37.454 27.4121 36.4351 28.2652 35.2353 28.7638L33.6968 37.982C33.6418 38.3128 33.4713 38.6134 33.2155 38.8302C32.9597 39.0471 32.6353 39.1662 32.3 39.1663H17.6998C17.3645 39.1662 17.0401 39.0471 16.7843 38.8302C16.5285 38.6134 16.358 38.3128 16.303 37.982L14.8453 29.2412C13.8648 29.1856 12.9339 28.7921 12.2107 28.1278C11.4875 27.4634 11.0167 26.5691 10.8784 25.5969C10.74 24.6247 10.9425 23.6346 11.4516 22.7948C11.9607 21.955 12.7449 21.3175 13.6708 20.9905L13.6666 20.7497C13.6663 19.3152 14.029 17.9041 14.721 16.6476C15.413 15.3911 16.4117 14.3301 17.6241 13.5636C18.8366 12.797 20.2233 12.3497 21.6551 12.2634C23.087 12.1771 24.5174 12.4546 25.8131 13.0699C26.264 12.3823 26.879 11.8177 27.6027 11.4271C28.3264 11.0366 29.1359 10.8324 29.9583 10.833ZM20.7499 29.2497H17.7183L18.8997 36.333H20.7499V29.2497ZM26.4166 29.2497H23.5833V36.333H26.4166V29.2497ZM32.2802 29.2497H29.2499V36.333H31.0987L32.2802 29.2497ZM22.1666 15.083C19.1321 15.083 16.6543 17.4687 16.507 20.4196L16.4999 20.6987L16.5042 20.9395C16.5142 21.4958 16.3602 22.0427 16.0614 22.5121C15.7626 22.9814 15.3323 23.3524 14.824 23.5788L14.6115 23.6623C14.2969 23.7743 14.032 23.9938 13.8633 24.2819C13.6946 24.5701 13.6331 24.9086 13.6895 25.2377C13.7458 25.5668 13.9165 25.8655 14.1715 26.0811C14.4265 26.2967 14.7493 26.4154 15.0833 26.4163H32.7916C33.3152 26.4163 33.8323 26.3002 34.3057 26.0764C34.7791 25.8525 35.1969 25.5264 35.5291 25.1217C35.8614 24.7169 36.0997 24.2435 36.227 23.7356C36.3543 23.2277 36.3674 22.6979 36.2653 22.1843C36.1632 21.6707 35.9485 21.1861 35.6367 20.7655C35.3248 20.3448 34.9236 19.9985 34.4618 19.7516C34.0001 19.5046 33.4893 19.3632 32.9663 19.3373C32.4433 19.3115 31.9211 19.4019 31.4373 19.6022L31.1893 19.7169C30.5356 20.0538 29.7766 20.1233 29.0726 19.9107C28.3686 19.6982 27.7748 19.2202 27.4167 18.5779L27.3176 18.3838C26.8648 17.3984 26.1388 16.5637 25.2258 15.9786C24.3128 15.3935 23.251 15.0827 22.1666 15.083ZM29.9583 13.6663C29.591 13.6663 29.23 13.7614 28.9105 13.9424C28.5909 14.1234 28.3238 14.3841 28.135 14.6991C28.8665 15.4193 29.4617 16.2659 29.8917 17.1981C30.5207 16.8751 31.2092 16.6541 31.9402 16.5563C32.0644 16.2345 32.1083 15.8872 32.0683 15.5445C32.0282 15.2018 31.9053 14.874 31.7101 14.5895C31.515 14.305 31.2535 14.0722 30.9483 13.9114C30.6431 13.7505 30.3033 13.6664 29.9583 13.6663Z" fill="#5DBD6D"/>
</svg>
