<svg width="50" height="50" viewBox="0 0 50 50" fill="none" xmlns="http://www.w3.org/2000/svg">
<rect width="50" height="50" rx="25" fill="#FDF3E3"/>
<path d="M26.4168 24.9997H30.6668L23.5835 34.9163V27.833H19.3335L26.4168 17.9163V24.9997ZM23.5835 16.4997H17.9168V36.333H32.0835V16.4997H26.4168V13.6663H23.5835V16.4997ZM20.7502 13.6663V12.2497C20.7502 11.874 20.8994 11.5136 21.1651 11.2479C21.4308 10.9823 21.7911 10.833 22.1668 10.833H27.8335C28.2092 10.833 28.5696 10.9823 28.8352 11.2479C29.1009 11.5136 29.2502 11.874 29.2502 12.2497V13.6663H33.5002C33.8759 13.6663 34.2362 13.8156 34.5019 14.0813C34.7676 14.347 34.9168 14.7073 34.9168 15.083V37.7497C34.9168 38.1254 34.7676 38.4857 34.5019 38.7514C34.2362 39.0171 33.8759 39.1663 33.5002 39.1663H16.5002C16.1244 39.1663 15.7641 39.0171 15.4984 38.7514C15.2328 38.4857 15.0835 38.1254 15.0835 37.7497V15.083C15.0835 14.7073 15.2328 14.347 15.4984 14.0813C15.7641 13.8156 16.1244 13.6663 16.5002 13.6663H20.7502Z" fill="#F0B14E"/>
</svg>
