<svg width="77" height="76" viewBox="0 0 77 76" fill="none" xmlns="http://www.w3.org/2000/svg">
<path d="M76.9999 29.3185H5.58789V75.4928H76.9999V29.3185Z" fill="#5DBD6D"/>
<path d="M28.096 24.5391H5.58789V29.3182H29.3827L28.096 24.5391Z" fill="#5DBD6D"/>
<path opacity="0.1" d="M28.096 24.5391H5.58789V29.3182H29.3827L28.096 24.5391Z" fill="black"/>
<path opacity="0.1" d="M76.9999 29.3185H5.58789V75.4928H76.9999V29.3185Z" fill="black"/>
<path d="M61.7986 59.6479L15.3486 59.6203L15.3762 0L49.869 0.0183819L61.817 11.3873L61.7986 59.6479Z" fill="#5DBD6D"/>
<path opacity="0.6" d="M61.7986 59.6479L15.3486 59.6203L15.3762 0L49.869 0.0183819L61.817 11.3873L61.7986 59.6479Z" fill="white"/>
<path d="M49.8691 0.0185547L61.817 11.3875L49.8599 11.3783L49.8691 0.0185547Z" fill="#5DBD6D"/>
<path opacity="0.4" d="M49.8691 0.0185547L61.817 11.3875L49.8599 11.3783L49.8691 0.0185547Z" fill="white"/>
<path d="M19.9021 11.5353L45.728 11.5488L45.7288 10.014L19.9029 10.0004L19.9021 11.5353Z" fill="#263238"/>
<path d="M19.9045 15.3957L45.7305 15.4092L45.7313 13.8743L19.9053 13.8608L19.9045 15.3957Z" fill="#263238"/>
<path d="M19.8972 19.2648L45.7231 19.2783L45.7239 17.7435L19.898 17.7299L19.8972 19.2648Z" fill="#263238"/>
<path d="M19.899 23.1286L57.7373 23.1484L57.7381 21.6136L19.8998 21.5938L19.899 23.1286Z" fill="#263238"/>
<path d="M19.8922 26.9978L57.7305 27.0176L57.7313 25.4827L19.893 25.4629L19.8922 26.9978Z" fill="#263238"/>
<path d="M19.8941 30.8485L57.7324 30.8683L57.7332 29.3334L19.895 29.3136L19.8941 30.8485Z" fill="#263238"/>
<path d="M19.8961 34.7175L57.7344 34.7373L57.7352 33.2025L19.8969 33.1826L19.8961 34.7175Z" fill="#263238"/>
<path d="M19.8888 38.5778L57.7271 38.5977L57.7279 37.0628L19.8896 37.043L19.8888 38.5778Z" fill="#263238"/>
<path d="M19.8908 42.447L57.729 42.4668L57.7298 40.9319L19.8916 40.9121L19.8908 42.447Z" fill="#263238"/>
<path d="M19.8834 46.3072L57.7217 46.327L57.7225 44.7922L19.8842 44.7724L19.8834 46.3072Z" fill="#263238"/>
<path d="M19.8766 50.1766L57.7148 50.1964L57.7156 48.6616L19.8774 48.6417L19.8766 50.1766Z" fill="#263238"/>
<path d="M19.8878 54.0368L57.7261 54.0566L57.7269 52.5218L19.8886 52.502L19.8878 54.0368Z" fill="#263238"/>
<path d="M76.8345 75.4931H5.42242L0.505371 33.1514H71.9266L76.8345 75.4931Z" fill="#5DBD6D"/>
<path d="M22.5081 28.7578H0L0.505479 33.151H24.3095L22.5081 28.7578Z" fill="#5DBD6D"/>
</svg>
