<svg width="50" height="50" viewBox="0 0 50 50" fill="none" xmlns="http://www.w3.org/2000/svg">
<rect width="50" height="50" rx="25" fill="#FDF3E3"/>
<path d="M31.3748 12.25C35.6787 12.25 39.1665 15.7917 39.1665 20.75C39.1665 30.6667 28.5415 36.3333 24.9998 38.4583C22.1991 36.7782 14.9656 32.8809 12.0643 26.4181L9.4165 26.4167V23.5833H11.1307C10.938 22.6823 10.8332 21.7388 10.8332 20.75C10.8332 15.7917 14.3748 12.25 18.6248 12.25C21.2598 12.25 23.5832 13.6667 24.9998 15.0833C26.4165 13.6667 28.7398 12.25 31.3748 12.25ZM31.3748 15.0833C29.8505 15.0833 28.2015 15.8908 27.003 17.0865L24.9998 19.0897L22.9967 17.0865C21.7982 15.8908 20.1492 15.0833 18.6248 15.0833C15.8765 15.0833 13.6665 17.4293 13.6665 20.75C13.6665 21.7204 13.794 22.6653 14.0448 23.5833H17.1147L20.0415 18.7043L24.2915 25.7877L25.6147 23.5833H32.0832V26.4167H27.2183L24.2915 31.2957L20.0415 24.2123L18.7183 26.4167H15.2362C16.3553 28.3632 18.0483 30.1963 20.2469 31.9459C21.3023 32.7846 22.4286 33.568 23.6767 34.3542C24.1003 34.622 24.5196 34.8784 24.9998 35.1646C25.4801 34.8784 25.8994 34.622 26.323 34.3557C27.5711 33.568 28.6973 32.7846 29.7513 31.9459C33.9744 28.5884 36.3332 24.9192 36.3332 20.75C36.3332 17.4067 34.1558 15.0833 31.3748 15.0833Z" fill="#F0B14E"/>
</svg>
