<svg width="50" height="50" viewBox="0 0 50 50" fill="none" xmlns="http://www.w3.org/2000/svg">
<rect width="50" height="50" rx="25" fill="#E9F6EB"/>
<path d="M22.1285 33.5002H27.8717C28.0587 31.7974 28.9271 30.392 30.3367 28.8578C30.4968 28.685 31.5154 27.6295 31.6358 27.4794C32.6364 26.2294 33.2635 24.7221 33.445 23.1313C33.6266 21.5405 33.3551 19.9307 32.6618 18.4874C31.9686 17.0441 30.8817 15.826 29.5265 14.9733C28.1713 14.1206 26.6028 13.668 25.0017 13.6677C23.4005 13.6673 21.8318 14.1192 20.4762 14.9714C19.1206 15.8235 18.0333 17.0412 17.3394 18.4842C16.6456 19.9271 16.3734 21.5368 16.5542 23.1277C16.7351 24.7186 17.3616 26.2261 18.3616 27.4765C18.4835 27.6281 19.5049 28.685 19.6621 28.8564C21.0731 30.392 21.9415 31.7974 22.1285 33.5002ZM27.8335 36.3335H22.1668V37.7502H27.8335V36.3335ZM16.1516 29.2502C14.8174 27.5832 13.9812 25.5732 13.7394 23.4517C13.4976 21.3303 13.86 19.1837 14.7849 17.2592C15.7098 15.3347 17.1595 13.7106 18.967 12.574C20.7746 11.4375 22.8665 10.8346 25.0017 10.835C27.1369 10.8353 29.2285 11.4388 31.0357 12.576C32.8429 13.7131 34.2921 15.3377 35.2164 17.2625C36.1406 19.1872 36.5023 21.334 36.2599 23.4554C36.0174 25.5767 35.1806 27.5865 33.8458 29.253C32.9675 30.3467 30.6668 32.0835 30.6668 34.2085V37.7502C30.6668 38.5017 30.3683 39.2223 29.8369 39.7537C29.3056 40.285 28.5849 40.5835 27.8335 40.5835H22.1668C21.4153 40.5835 20.6947 40.285 20.1633 39.7537C19.632 39.2223 19.3335 38.5017 19.3335 37.7502V34.2085C19.3335 32.0835 17.0314 30.3467 16.1516 29.2502ZM26.4168 22.1725H29.9585L23.5835 30.6725V25.0059H20.0418L26.4168 16.5002V22.174V22.1725Z" fill="#5DBD6D"/>
</svg>
