<svg width="50" height="50" viewBox="0 0 50 50" fill="none" xmlns="http://www.w3.org/2000/svg">
<rect width="50" height="50" rx="25" fill="#FCE3E8"/>
<path d="M25.0002 39.1663C17.1759 39.1663 10.8335 32.8239 10.8335 24.9997C10.8335 17.1754 17.1759 10.833 25.0002 10.833C32.8244 10.833 39.1668 17.1754 39.1668 24.9997C39.1668 32.8239 32.8244 39.1663 25.0002 39.1663ZM25.0002 36.333C28.006 36.333 30.8886 35.139 33.014 33.0136C35.1395 30.8881 36.3335 28.0055 36.3335 24.9997C36.3335 21.9939 35.1395 19.1112 33.014 16.9858C30.8886 14.8604 28.006 13.6663 25.0002 13.6663C21.9944 13.6663 19.1117 14.8604 16.9863 16.9858C14.8609 19.1112 13.6668 21.9939 13.6668 24.9997C13.6668 28.0055 14.8609 30.8881 16.9863 33.0136C19.1117 35.139 21.9944 36.333 25.0002 36.333ZM23.5835 29.2497H26.4168V32.083H23.5835V29.2497ZM23.5835 17.9163H26.4168V26.4163H23.5835V17.9163Z" fill="#F37A92"/>
</svg>
