<svg width="47" height="47" viewBox="0 0 47 47" fill="none" xmlns="http://www.w3.org/2000/svg">
<rect width="47" height="47" rx="10" fill="#FAE3E8"/>
<path d="M11.4538 32V15.2727H22.5291V18.1886H14.9904V22.1744H21.794V25.0902H14.9904V32H11.4538ZM29.639 32.245C28.3485 32.245 27.2377 31.9837 26.3066 31.4609C25.381 30.9328 24.6677 30.1868 24.1667 29.223C23.6658 28.2538 23.4153 27.1076 23.4153 25.7844C23.4153 24.494 23.6658 23.3614 24.1667 22.3867C24.6677 21.4121 25.3728 20.6525 26.2821 20.108C27.1969 19.5634 28.2696 19.2912 29.5002 19.2912C30.3278 19.2912 31.0983 19.4246 31.8116 19.6914C32.5304 19.9528 33.1565 20.3475 33.6902 20.8757C34.2292 21.4039 34.6485 22.0682 34.948 22.8686C35.2475 23.6636 35.3972 24.5947 35.3972 25.6619V26.6175H24.8038V24.4613H32.122C32.122 23.9603 32.0131 23.5166 31.7953 23.13C31.5775 22.7434 31.2753 22.4412 30.8887 22.2234C30.5075 22.0001 30.0637 21.8885 29.5574 21.8885C29.0292 21.8885 28.5609 22.011 28.1525 22.256C27.7496 22.4956 27.4338 22.8196 27.2051 23.228C26.9764 23.6309 26.8593 24.0801 26.8539 24.5756V26.6257C26.8539 27.2464 26.9682 27.7828 27.1969 28.2347C27.431 28.6867 27.7605 29.0352 28.1852 29.2802C28.6099 29.5252 29.1136 29.6477 29.6962 29.6477C30.0828 29.6477 30.4367 29.5933 30.758 29.4844C31.0792 29.3755 31.3542 29.2121 31.5829 28.9943C31.8116 28.7765 31.9859 28.5097 32.1056 28.1939L35.3237 28.4062C35.1603 29.1795 34.8255 29.8546 34.3191 30.4318C33.8181 31.0036 33.1702 31.45 32.3752 31.7713C31.5856 32.0871 30.6736 32.245 29.639 32.245Z" fill="#F2859A"/>
</svg>
