<svg width="52" height="79" viewBox="0 0 52 79" fill="none" xmlns="http://www.w3.org/2000/svg">
<path d="M39.7702 28.268C39.7702 29.2651 41.3576 30.1033 41.3576 31.9979C41.3576 32.9681 40.6218 34.8573 38.4173 34.8573C36.2128 34.8573 35.4771 32.9708 35.4771 31.9979C35.4771 30.1114 37.0644 29.2651 37.0644 28.268C37.0644 27.4002 35.973 26.6106 35.973 26.6106H26.0015V15.6581C26.0015 15.6581 26.7911 14.5801 27.6589 14.5801C28.656 14.5801 29.4942 16.1675 31.3888 16.1675C32.359 16.1675 34.2482 15.4317 34.2482 13.2272C34.2482 11.0227 32.3617 10.287 31.3888 10.287C29.5023 10.287 28.656 11.8743 27.6589 11.8743C26.7911 11.8743 26.0015 10.7963 26.0015 10.7963V0.0244141C40.603 0.0244141 52.0001 11.7962 52.0001 24.4681C52.0001 25.1975 51.9678 25.9162 51.9031 26.6241H40.8536C40.8536 26.6241 39.7702 27.4002 39.7702 28.268Z" fill="#5DBD6D"/>
<path d="M17.7521 37.4333C17.7521 39.6378 19.6386 40.3735 20.6142 40.3735C22.5007 40.3735 23.3469 38.7862 24.3441 38.7862C25.2118 38.7862 25.9988 39.8642 25.9988 39.8642V65.2618H16.0273C16.0273 65.2618 17.1834 56.2767 12.6639 49.6308C10.0363 45.7608 1.11586 38.1043 0.102539 26.6236H11.9309C11.9309 26.6236 13.0089 25.8367 13.0089 24.9689C13.0089 23.9718 11.4215 23.1336 11.4215 21.239C11.4215 20.2688 12.1573 18.377 14.3618 18.377C16.5663 18.377 17.302 20.2635 17.302 21.239C17.302 23.1255 15.7147 23.9718 15.7147 24.9689C15.7147 25.8367 16.7927 26.6236 16.7927 26.6236H25.9826V35.0051C25.9826 35.0051 25.1957 36.0831 24.3279 36.0831C23.3307 36.0831 22.4926 34.4957 20.598 34.4957C19.644 34.493 17.7521 35.2288 17.7521 37.4333Z" fill="#5DBD6D"/>
<path d="M34.2453 13.2163C34.2453 15.4208 32.3588 16.1565 31.3859 16.1565C29.4995 16.1565 28.6532 14.5692 27.6561 14.5692C26.7883 14.5692 25.9986 15.6472 25.9986 15.6472V26.5996H16.8087C16.8087 26.5996 15.7307 25.8127 15.7307 24.9449C15.7307 23.9478 17.3181 23.1096 17.3181 21.215C17.3181 20.2448 16.5823 18.3529 14.3778 18.3529C12.1733 18.3529 11.4376 20.2394 11.4376 21.215C11.4376 23.1015 13.0249 23.9478 13.0249 24.9449C13.0249 25.8127 11.9469 26.5996 11.9469 26.5996H0.0970201C0.0323401 25.9007 0 25.1821 0 24.4436C0 11.7771 11.3971 0 25.9986 0V10.7503C25.9986 10.7503 26.7883 11.8283 27.6561 11.8283C28.6532 11.8283 29.4914 10.241 31.3859 10.241C32.3561 10.2841 34.2453 11.0118 34.2453 13.2163Z" fill="#5DBD6D"/>
<path opacity="0.1" d="M34.2453 13.2163C34.2453 15.4208 32.3588 16.1565 31.3859 16.1565C29.4995 16.1565 28.6532 14.5692 27.6561 14.5692C26.7883 14.5692 25.9986 15.6472 25.9986 15.6472V26.5996H16.8087C16.8087 26.5996 15.7307 25.8127 15.7307 24.9449C15.7307 23.9478 17.3181 23.1096 17.3181 21.215C17.3181 20.2448 16.5823 18.3529 14.3778 18.3529C12.1733 18.3529 11.4376 20.2394 11.4376 21.215C11.4376 23.1015 13.0249 23.9478 13.0249 24.9449C13.0249 25.8127 11.9469 26.5996 11.9469 26.5996H0.0970201C0.0323401 25.9007 0 25.1821 0 24.4436C0 11.7771 11.3971 0 25.9986 0V10.7503C25.9986 10.7503 26.7883 11.8283 27.6561 11.8283C28.6532 11.8283 29.4914 10.241 31.3859 10.241C32.3561 10.2841 34.2453 11.0118 34.2453 13.2163Z" fill="black"/>
<path d="M38.3282 65.2598H13.6689V69.0894H38.3282V65.2598Z" fill="#151519"/>
<path d="M38.3282 69.7686H13.6689V73.5981H38.3282V69.7686Z" fill="#151519"/>
<path d="M34.4826 74.2793H17.5176V78.1089H34.4826V74.2793Z" fill="#151519"/>
</svg>
