<svg width="50" height="50" viewBox="0 0 50 50" fill="none" xmlns="http://www.w3.org/2000/svg">
<rect width="50" height="50" rx="25" fill="#FDF3E3"/>
<path d="M26.5866 32.1159L20.638 28.8717C19.8614 29.702 18.853 30.2795 17.7439 30.5291C16.6348 30.7787 15.4762 30.6889 14.4188 30.2715C13.3613 29.854 12.4539 29.1281 11.8144 28.1881C11.175 27.2482 10.833 26.1376 10.833 25.0007C10.833 23.8638 11.175 22.7533 11.8144 21.8133C12.4539 20.8733 13.3613 20.1474 14.4188 19.7299C15.4762 19.3125 16.6348 19.2227 17.7439 19.4723C18.853 19.7219 19.8614 20.2994 20.638 21.1297L26.588 17.8855C26.2503 16.5483 26.4118 15.1337 27.0423 13.9071C27.6728 12.6804 28.7291 11.7258 30.0131 11.2222C31.2971 10.7186 32.7207 10.7006 34.017 11.1715C35.3134 11.6425 36.3934 12.57 37.0548 13.7804C37.7162 14.9907 37.9134 16.4007 37.6096 17.746C37.3057 19.0914 36.5216 20.2797 35.4043 21.0883C34.287 21.8969 32.9131 22.2702 31.5402 22.1383C30.1672 22.0064 28.8896 21.3783 27.9466 20.3717L21.9966 23.6159C22.225 24.5245 22.225 25.4755 21.9966 26.3841L27.9452 29.6282C28.8882 28.6217 30.1658 27.9936 31.5387 27.8617C32.9116 27.7298 34.2855 28.1031 35.4029 28.9117C36.5202 29.7203 37.3043 30.9086 37.6082 32.254C37.912 33.5993 37.7148 35.0093 37.0534 36.2196C36.392 37.43 35.3119 38.3575 34.0156 38.8285C32.7193 39.2994 31.2957 39.2814 30.0117 38.7778C28.7277 38.2742 27.6714 37.3196 27.0409 36.0929C26.4103 34.8663 26.2488 33.4517 26.5866 32.1145V32.1159ZM16.5 27.8333C17.2514 27.8333 17.9721 27.5348 18.5034 27.0035C19.0348 26.4721 19.3333 25.7514 19.3333 25C19.3333 24.2486 19.0348 23.5279 18.5034 22.9965C17.9721 22.4652 17.2514 22.1667 16.5 22.1667C15.7485 22.1667 15.0278 22.4652 14.4965 22.9965C13.9651 23.5279 13.6666 24.2486 13.6666 25C13.6666 25.7514 13.9651 26.4721 14.4965 27.0035C15.0278 27.5348 15.7485 27.8333 16.5 27.8333V27.8333ZM32.0833 19.3333C32.8347 19.3333 33.5554 19.0348 34.0868 18.5035C34.6181 17.9721 34.9166 17.2514 34.9166 16.5C34.9166 15.7486 34.6181 15.0279 34.0868 14.4965C33.5554 13.9652 32.8347 13.6667 32.0833 13.6667C31.3319 13.6667 30.6112 13.9652 30.0798 14.4965C29.5485 15.0279 29.25 15.7486 29.25 16.5C29.25 17.2514 29.5485 17.9721 30.0798 18.5035C30.6112 19.0348 31.3319 19.3333 32.0833 19.3333V19.3333ZM32.0833 36.3333C32.8347 36.3333 33.5554 36.0348 34.0868 35.5035C34.6181 34.9721 34.9166 34.2514 34.9166 33.5C34.9166 32.7486 34.6181 32.0279 34.0868 31.4965C33.5554 30.9652 32.8347 30.6667 32.0833 30.6667C31.3319 30.6667 30.6112 30.9652 30.0798 31.4965C29.5485 32.0279 29.25 32.7486 29.25 33.5C29.25 34.2514 29.5485 34.9721 30.0798 35.5035C30.6112 36.0348 31.3319 36.3333 32.0833 36.3333V36.3333Z" fill="#F0B14E"/>
</svg>
