<svg width="50" height="50" viewBox="0 0 50 50" fill="none" xmlns="http://www.w3.org/2000/svg">
<rect width="50" height="50" rx="25" fill="#FCE3E8"/>
<path d="M26.4166 10.833V12.6435L33.4999 15.0065L38.6453 13.2923L39.542 15.9783L35.2467 17.4106L39.6327 29.4692C38.0857 31.08 35.9083 32.083 33.4999 32.083C31.0902 32.083 28.9142 31.08 27.3672 29.4692L31.7504 17.4106L26.4166 15.6313V34.9163H32.0833V37.7497H17.9166V34.9163H23.5833V15.6313L18.2453 17.4106L22.6313 29.4692C21.0857 31.08 18.9083 32.083 16.4999 32.083C14.0902 32.083 11.9142 31.08 10.3672 29.4692L14.7504 17.4106L10.4579 15.9798L11.3546 13.2909L16.4999 15.0051L23.5833 12.6435V10.833H26.4166ZM33.4999 20.8956L30.7261 28.5257C31.5577 28.9947 32.5069 29.2497 33.4999 29.2497C34.4916 29.2497 35.4408 28.9947 36.2738 28.5272L33.4999 20.8942V20.8956ZM16.4999 20.8956L13.7261 28.5257C14.5577 28.9947 15.5069 29.2497 16.4999 29.2497C17.4916 29.2497 18.4408 28.9947 19.2738 28.5272L16.4999 20.8942V20.8956Z" fill="#F37A92"/>
</svg>
