<svg width="50" height="50" viewBox="0 0 50 50" fill="none" xmlns="http://www.w3.org/2000/svg">
<rect width="50" height="50" rx="25" fill="#FCE3E8"/>
<rect x="13.25" y="13.25" width="23.5" height="23.5" rx="6.75" stroke="#F37A92" stroke-width="2.5"/>
<path d="M18.9982 24.7736C18.4505 24.8443 17.9416 24.4563 17.9496 23.904C17.9592 23.2454 18.0617 22.5896 18.2555 21.9565C18.5472 21.0038 19.039 20.1243 19.6979 19.3768C20.3568 18.6293 21.1676 18.0312 22.0763 17.6223C22.9849 17.2134 23.9704 17.0031 24.9668 17.0057C25.9632 17.0083 26.9476 17.2235 27.8542 17.637C28.7607 18.0506 29.5685 18.6529 30.2236 19.4037C30.8786 20.1546 31.3659 21.0366 31.6527 21.9908C31.8432 22.6249 31.9424 23.2812 31.9486 23.9399C31.9538 24.4921 31.4429 24.8775 30.8955 24.8041L30.7514 24.7847C30.204 24.7112 29.8307 24.2047 29.7907 23.6539C29.765 23.3004 29.7006 22.9497 29.598 22.6084C29.3991 21.9466 29.0612 21.3349 28.6069 20.8142C28.1527 20.2935 27.5924 19.8758 26.9637 19.589C26.335 19.3022 25.6524 19.1529 24.9613 19.1511C24.2703 19.1493 23.5869 19.2951 22.9567 19.5787C22.3266 19.8623 21.7642 20.2771 21.3072 20.7955C20.8503 21.3139 20.5093 21.9238 20.307 22.5846C20.2026 22.9254 20.1365 23.2757 20.109 23.6291C20.0661 24.1797 19.6902 24.6843 19.1425 24.755L18.9982 24.7736Z" fill="#F37A92"/>
<circle cx="25" cy="23.5" r="1.5" fill="#F37A92"/>
<path fill-rule="evenodd" clip-rule="evenodd" d="M27.4277 21.2647C27.798 21.6745 27.766 22.3068 27.3562 22.6771L26.2433 23.6827L24.9024 22.1988L26.0153 21.1932C26.4251 20.8229 27.0575 20.8549 27.4277 21.2647Z" fill="#F37A92"/>
</svg>
