<svg width="85" height="101" viewBox="0 0 85 101" fill="none" xmlns="http://www.w3.org/2000/svg">
<path d="M57.8113 21.7115C59.6864 21.27 64.5495 22.5402 66.2129 25.0262C67.8763 27.5122 67.7977 31.583 66.969 31.9943C66.1404 32.4056 62.5474 32.1516 60.0675 30.833C57.5875 29.5144 56.8858 21.9595 57.8113 21.7115Z" fill="#263238"/>
<path d="M57.8049 21.7243C57.7444 21.7243 57.7323 21.6094 57.8049 21.6033C59.4562 21.5368 61.2285 22.0691 62.8072 22.4985C64.1158 22.7729 65.3522 23.319 66.4364 24.1014C66.9363 24.5009 67.3435 25.0042 67.6296 25.5765C67.9158 26.1488 68.0742 26.7765 68.0937 27.4161C68.2202 28.9639 67.9452 30.5181 67.2953 31.9285C67.2953 31.9648 67.2046 31.9285 67.2167 31.9285C67.9365 29.1703 68.5474 25.8072 65.7892 23.9805C63.4362 22.4018 60.4663 22.2626 57.8049 21.7243Z" fill="#263238"/>
<path d="M66.7148 31.2805C68.3661 31.468 72.6969 34.5407 73.4591 37.6618C74.2212 40.783 71.7533 45.4526 70.9549 45.7973C70.1565 46.1421 66.4668 43.1964 65.2449 41.0128C64.4284 39.549 65.0272 37.8252 65.3659 36.1073C65.8256 33.579 66.4305 31.2563 66.7148 31.2805Z" fill="#263238"/>
<path d="M64.2227 40.6326C63.6843 37.451 65.4324 34.2633 66.4849 31.366C66.4849 31.3357 66.5454 31.366 66.5393 31.366C65.9828 34.1423 64.3557 36.6526 64.3497 39.5438C64.3118 40.3919 64.479 41.2365 64.837 42.0062C65.195 42.776 65.7333 43.448 66.4062 43.9654C67.6462 44.8606 69.1947 45.2538 70.6403 45.7377C70.7371 45.7679 70.6766 45.9071 70.5799 45.8768C67.7128 45.0058 64.7731 43.9231 64.2227 40.6326Z" fill="#263238"/>
<path d="M67.0473 31.5709C67.0322 31.5621 67.0207 31.5481 67.0151 31.5315C67.0095 31.5149 67.01 31.4969 67.0166 31.4806C67.0233 31.4644 67.0355 31.4512 67.0512 31.4433C67.0668 31.4354 67.0848 31.4335 67.1018 31.4378C69.4608 32.5145 72.3036 34.0871 73.592 36.4401C74.9893 38.9926 73.6706 41.7024 72.4972 44.0433C72.4972 44.0433 72.4367 44.0433 72.4488 44.0433C73.6041 41.6722 74.8199 38.7325 73.2412 36.2526C71.8802 34.0932 69.2732 32.6233 67.0473 31.5709Z" fill="#263238"/>
<path d="M70.7311 45.7188C69.9866 46.3244 69.3735 47.0755 68.9294 47.9263C68.4853 48.7771 68.2195 49.7095 68.1483 50.6666C67.9064 54.4894 66.4123 53.8905 62.4081 55.3059C59.0208 56.5157 58.676 60.4655 60.7205 62.1954C60.7205 62.1954 59.4079 59.909 61.6278 58.4997C64.2771 56.8121 70.9731 59.1045 73.7615 54.8281C77.3665 49.2996 70.7311 45.7188 70.7311 45.7188Z" fill="#263238"/>
<path d="M71.4146 46.1124C71.4146 46.1124 71.3662 46.1124 71.4146 46.1487C72.9267 47.3585 74.5115 48.5682 75.1103 50.5159C75.7515 52.6027 74.8684 54.8468 73.326 56.3045C71.596 57.9316 69.5153 57.4477 67.3801 57.2541C65.8483 57.0124 64.2796 57.1857 62.8375 57.7562C62.7952 57.7562 62.8375 57.853 62.8738 57.8348C65.2147 57.0364 67.4769 57.5263 69.8661 57.6715C70.7559 57.7442 71.6482 57.5649 72.4409 57.1542C73.2336 56.7434 73.8945 56.1177 74.3482 55.3488C76.7132 51.7801 74.6567 48.1932 71.4146 46.1124Z" fill="#263238"/>
<path d="M59.2265 19.9638C59.3389 19.8425 59.4929 19.768 59.6577 19.7549C59.8226 19.7418 59.9864 19.7912 60.1166 19.8932C60.2467 19.9952 60.3338 20.1424 60.3605 20.3056C60.3873 20.4688 60.3517 20.6361 60.2608 20.7743C59.7466 21.4518 58.7123 20.6413 59.2265 19.9638Z" fill="#F8F8F8"/>
<path d="M58.7365 21.0831C58.849 20.9618 59.0029 20.8872 59.1678 20.8741C59.3326 20.8611 59.4964 20.9104 59.6266 21.0124C59.7568 21.1144 59.8439 21.2616 59.8706 21.4249C59.8973 21.5881 59.8617 21.7554 59.7708 21.8936C59.2567 22.565 58.2466 21.7605 58.7365 21.0831Z" fill="#F8F8F8"/>
<path d="M58.0527 22.1114C58.1652 21.9901 58.3192 21.9155 58.484 21.9025C58.6489 21.8894 58.8127 21.9387 58.9429 22.0408C59.073 22.1428 59.1601 22.29 59.1868 22.4532C59.2136 22.6164 59.178 22.7837 59.0871 22.9219C58.9746 23.0432 58.8207 23.1178 58.6558 23.1309C58.4909 23.1439 58.3272 23.0946 58.197 22.9926C58.0668 22.8905 57.9797 22.7433 57.953 22.5801C57.9263 22.4169 57.9619 22.2496 58.0527 22.1114Z" fill="#F8F8F8"/>
<path d="M57.2606 23.0127C57.3731 22.8915 57.527 22.8169 57.6919 22.8038C57.8568 22.7907 58.0206 22.8401 58.1507 22.9421C58.2809 23.0441 58.368 23.1913 58.3947 23.3546C58.4214 23.5178 58.3858 23.6851 58.295 23.8233C57.7808 24.5007 56.7465 23.6902 57.2606 23.0127Z" fill="#F8F8F8"/>
<path d="M56.3047 23.7748C56.8188 23.0973 57.8532 23.9079 57.339 24.5853C57.2266 24.7066 57.0726 24.7812 56.9078 24.7943C56.7429 24.8073 56.5791 24.758 56.4489 24.656C56.3187 24.554 56.2317 24.4067 56.2049 24.2435C56.1782 24.0803 56.2138 23.913 56.3047 23.7748Z" fill="#F8F8F8"/>
<path d="M55.2647 24.379C55.3772 24.2577 55.5311 24.1831 55.696 24.17C55.8609 24.157 56.0246 24.2063 56.1548 24.3083C56.285 24.4103 56.3721 24.5576 56.3988 24.7208C56.4255 24.884 56.3899 25.0513 56.2991 25.1895C55.7849 25.8307 54.7566 25.0201 55.2647 24.379Z" fill="#F8F8F8"/>
<path d="M54.2786 36.5375C51.4418 40.0336 36.2535 51.0543 23.4303 50.8366C19.0752 50.77 6.97779 32.1824 4.73977 25.1175C3.13687 20.0426 13.9096 17.478 16.9581 18.2099C20.7567 19.1293 28.1603 35.0676 29.6241 35.1462C33.9792 35.4487 41.4554 32.8296 50.6312 31.8981C55.3553 31.4444 56.4682 33.8518 54.2786 36.5375Z" fill="#FFCCB3"/>
<path d="M5.16926 26.2847C4.35874 24.5185 0.554096 14.7015 0.245612 12.1792C-0.0628716 9.65686 -0.419728 2.31374 1.49166 1.89638C3.40305 1.47902 3.67523 3.60817 3.67523 3.60817C3.67523 3.60817 4.01396 0.480985 5.97978 0.220891C7.94561 -0.039203 8.26619 3.30573 8.26619 3.30573C8.26619 3.30573 8.87107 0.124112 10.8248 0.00313755C12.7785 -0.117836 12.5608 3.29968 12.5608 3.29968C12.5608 3.29968 12.9539 0.366064 14.6234 0.952788C16.6376 1.66049 15.2948 7.00148 15.8331 9.74759C15.9601 10.3525 19.2688 22.2926 19.2688 22.2926L5.16926 26.2847Z" fill="#FFCCB3"/>
<path d="M12.573 2.99109C11.5992 6.90459 11.8472 8.79179 13.0932 12.5662C13.0932 12.6388 13.0146 12.6932 12.9843 12.6146C11.4238 9.03374 10.7705 6.71709 12.3795 2.93665C12.4641 2.74914 12.6214 2.80358 12.573 2.99109Z" fill="#263238"/>
<path d="M8.34449 2.97885C7.69123 7.1343 7.94528 9.17877 8.94936 13.2314C8.94936 13.2858 8.87072 13.3161 8.85258 13.2616C7.52186 9.37232 6.92305 7.04357 8.12675 2.97885C8.18723 2.79134 8.37473 2.78529 8.34449 2.97885Z" fill="#263238"/>
<path d="M3.73578 3.8138C3.391 7.89062 3.57247 10.1407 5.06045 13.9454C5.06492 13.963 5.06315 13.9816 5.05544 13.9981C5.04774 14.0145 5.03456 14.0278 5.01816 14.0357C5.00176 14.0435 4.98315 14.0454 4.96549 14.0411C4.94784 14.0368 4.93223 14.0264 4.92132 14.0119C3.02808 10.2798 2.78009 7.46721 3.60876 3.81984C3.66925 3.54765 3.75998 3.53556 3.73578 3.8138Z" fill="#263238"/>
<path d="M21.9544 24.1192C21.9544 24.1192 22.5169 19.0927 22.2749 16.8305C22.033 14.5683 18.0409 6.46303 16.2262 7.22517C13.9035 8.21111 15.2887 13.3464 16.2988 15.772C16.2988 15.772 10.9215 18.0523 11.1211 21.9537C11.3208 25.8552 21.9544 24.1192 21.9544 24.1192Z" fill="#FFCCB3"/>
<path d="M15.6939 7.70955C14.224 10.129 15.7544 13.232 16.5588 15.6575C16.5725 15.6931 16.5774 15.7314 16.573 15.7692C16.5687 15.8071 16.5552 15.8433 16.5338 15.8748C16.5124 15.9063 16.4837 15.9321 16.4502 15.9501C16.4166 15.9681 16.3792 15.9777 16.3411 15.9781C14.1515 17.085 11.3812 19.2807 11.0182 21.8454C11.0143 21.8575 11.0066 21.868 10.9962 21.8755C10.9859 21.8829 10.9735 21.887 10.9608 21.887C10.948 21.887 10.9356 21.8829 10.9253 21.8755C10.915 21.868 10.9073 21.8575 10.9033 21.8454C10.9033 19.0388 13.4619 16.6616 15.9358 15.6031C15.0769 13.1292 13.6797 9.95362 15.6757 7.69745C15.6818 7.67931 15.706 7.69141 15.6939 7.70955Z" fill="#263238"/>
<path d="M36.1265 33.9365L41.413 46.1549C41.413 46.1549 49.4094 42.3503 54.2726 37.4327C59.1357 32.5151 53.7282 30.8638 49.0223 31.5775C44.3164 32.2913 36.1265 33.9365 36.1265 33.9365Z" fill="#5DBD6D"/>
<path d="M54.2727 37.457C49.4337 42.3746 41.4132 46.1793 41.4132 46.1793L39.8042 42.4593L55.9119 33.1201C56.5047 34.1 56.178 35.5275 54.2727 37.457Z" fill="#C7C7C7"/>
<path d="M43.409 44.4616C41.674 41.0557 40.1489 37.547 38.8423 33.955C38.8423 33.9126 38.8967 33.8824 38.9149 33.955C39.2717 34.8985 41.788 40.1004 43.4877 44.4555C43.5119 44.4857 43.4332 44.5099 43.409 44.4616Z" fill="#263238"/>
<path d="M42.1568 58.1071L39.9854 74.6685H74.6504C74.6504 74.6685 70.0655 43.6084 62.6619 34.0575C58.9601 29.2851 54.0002 29.4121 50.4919 33.0595C49.7238 33.8518 41.9814 44.9149 40.6144 49.4817C39.4228 53.5282 42.1568 58.1071 42.1568 58.1071Z" fill="#5DBD6D"/>
<path d="M52.2462 34.7285L50.0566 40.6018C49.3348 42.5616 48.6412 44.5274 47.9758 46.4993C47.371 48.4833 46.6149 50.4672 46.9113 52.4875C47.1715 54.5237 47.8401 56.4864 48.8771 58.258L48.9255 58.3426V58.4273C48.623 61.0585 48.2662 63.6897 47.9456 66.2906C47.625 68.8916 47.256 71.547 46.881 74.154C47.1068 71.5087 47.3468 68.8694 47.6008 66.2362C47.867 63.599 48.1089 60.9617 48.3992 58.3306L48.4355 58.4939C47.3328 56.6639 46.6146 54.6285 46.3245 52.5117C46.1988 51.4385 46.2747 50.3512 46.5483 49.3059C46.8145 48.2776 47.1532 47.2796 47.4738 46.2815C48.1452 44.2915 48.9376 42.3559 49.73 40.4203C50.5223 38.4848 51.3631 36.6278 52.2462 34.7285Z" fill="#263238"/>
<path d="M47.4074 42.3805C47.3815 42.5109 47.4067 42.6463 47.4775 42.7588C47.5484 42.8713 47.6596 42.9523 47.7884 42.9854C47.8522 42.9947 47.9172 42.991 47.9794 42.9746C48.0417 42.9581 48.1 42.9293 48.1509 42.8897C48.2017 42.8502 48.2441 42.8008 48.2753 42.7444C48.3066 42.6881 48.3261 42.626 48.3328 42.562C48.3602 42.4314 48.3357 42.2953 48.2646 42.1825C48.1935 42.0696 48.0813 41.9888 47.9518 41.9571C47.8879 41.9469 47.8226 41.9499 47.76 41.966C47.6973 41.9821 47.6386 42.0108 47.5876 42.0505C47.5365 42.0903 47.4942 42.14 47.4632 42.1968C47.4322 42.2536 47.4132 42.3161 47.4074 42.3805Z" fill="#263238"/>
<path d="M45.3083 48.0964C45.2809 48.227 45.3054 48.363 45.3765 48.4759C45.4476 48.5888 45.5598 48.6696 45.6894 48.7013C45.7523 48.7106 45.8165 48.7071 45.8781 48.691C45.9396 48.6748 45.9973 48.6464 46.0476 48.6074C46.0979 48.5685 46.1397 48.5197 46.1707 48.4641C46.2017 48.4085 46.2211 48.3472 46.2277 48.2839C46.2551 48.1533 46.2306 48.0173 46.1595 47.9044C46.0884 47.7915 45.9762 47.7107 45.8466 47.679C45.7837 47.6697 45.7195 47.6732 45.6579 47.6894C45.5964 47.7055 45.5387 47.7339 45.4884 47.7729C45.4381 47.8119 45.3963 47.8606 45.3653 47.9162C45.3344 47.9718 45.3149 48.0331 45.3083 48.0964Z" fill="#263238"/>
<path d="M45.0422 53.9274C45.0148 54.0579 45.0393 54.194 45.1104 54.3069C45.1815 54.4197 45.2937 54.5005 45.4232 54.5322C45.4865 54.5416 45.5511 54.5381 45.613 54.522C45.6749 54.506 45.733 54.4776 45.7837 54.4387C45.8345 54.3998 45.8769 54.3511 45.9085 54.2955C45.9401 54.2398 45.9602 54.1784 45.9676 54.1149C45.9934 53.9844 45.9683 53.8491 45.8975 53.7366C45.8266 53.6241 45.7153 53.543 45.5866 53.51C45.5233 53.5007 45.4587 53.5041 45.3968 53.5202C45.3349 53.5363 45.2768 53.5646 45.2261 53.6035C45.1753 53.6424 45.1329 53.6911 45.1013 53.7468C45.0697 53.8024 45.0496 53.8638 45.0422 53.9274Z" fill="#263238"/>
<path d="M46.6633 58.7604C46.6359 58.8909 46.6604 59.027 46.7315 59.1399C46.8026 59.2527 46.9148 59.3336 47.0443 59.3652C47.1076 59.3746 47.1721 59.3711 47.2341 59.3551C47.296 59.339 47.3541 59.3107 47.4048 59.2717C47.4556 59.2328 47.498 59.1841 47.5296 59.1285C47.5612 59.0728 47.5813 59.0114 47.5887 58.9479C47.6145 58.8175 47.5894 58.6821 47.5186 58.5696C47.4477 58.4571 47.3364 58.376 47.2077 58.343C47.1444 58.3337 47.0799 58.3371 47.0179 58.3532C46.956 58.3693 46.8979 58.3976 46.8472 58.4365C46.7964 58.4754 46.754 58.5242 46.7224 58.5798C46.6908 58.6354 46.6707 58.6968 46.6633 58.7604Z" fill="#263238"/>
<path d="M46.0343 64.029C46.0085 64.1594 46.0336 64.2948 46.1045 64.4073C46.1753 64.5198 46.2866 64.6008 46.4154 64.6339C46.4788 64.6432 46.5434 64.6395 46.6054 64.623C46.6673 64.6065 46.7252 64.5775 46.7756 64.5379C46.826 64.4983 46.8677 64.4488 46.8984 64.3925C46.929 64.3362 46.9478 64.2743 46.9537 64.2105C46.9795 64.08 46.9544 63.9447 46.8835 63.8322C46.8127 63.7197 46.7014 63.6386 46.5727 63.6056C46.5092 63.5963 46.4446 63.6 46.3827 63.6165C46.3207 63.633 46.2628 63.6619 46.2124 63.7015C46.1621 63.7412 46.1203 63.7906 46.0897 63.8469C46.059 63.9032 46.0402 63.9652 46.0343 64.029Z" fill="#263238"/>
<path d="M45.4596 69.2301C45.4338 69.3605 45.4589 69.4959 45.5298 69.6084C45.6007 69.7209 45.7119 69.8019 45.8407 69.835C45.9044 69.8443 45.9694 69.8406 46.0317 69.8242C46.094 69.8078 46.1523 69.7789 46.2032 69.7393C46.254 69.6998 46.2963 69.6504 46.3276 69.594C46.3589 69.5377 46.3784 69.4756 46.3851 69.4116C46.4122 69.2802 46.3869 69.1433 46.3146 69.0303C46.2423 68.9173 46.1286 68.8371 45.9979 68.8067C45.9344 68.7965 45.8694 68.7995 45.8072 68.8157C45.7449 68.8318 45.6866 68.8607 45.636 68.9004C45.5854 68.9402 45.5436 68.9901 45.5133 69.0468C45.4829 69.1035 45.4646 69.1659 45.4596 69.2301Z" fill="#263238"/>
<path d="M53.8135 89.792C55.5616 91.0017 58.5012 85.7515 59.4993 84.6324C60.4973 83.5134 60.9328 83.5497 60.8723 84.4026L63.1466 75.3779C61.9671 76.2913 59.469 78.2571 58.1383 79.5515C56.3539 81.2815 52.0654 88.6064 53.8135 89.792Z" fill="#FFCCB3"/>
<path d="M65.5052 35.4003C72.9089 41.3704 82.242 51.8709 84.1473 58.6576C85.6111 63.8958 78.2438 82.0963 76.0481 86.3425C75.0924 88.1934 62.4144 82.562 61.8579 80.4026C61.3014 78.2433 70.1385 62.5711 70.2232 60.9077C70.3079 59.2443 64.5314 48.2599 60.5937 40.8321C55.785 31.8316 59.1783 30.3255 65.5052 35.4003Z" fill="#FFCCB3"/>
<path d="M55.0597 94.9759C56.2271 96.2461 58.5921 94.7037 58.5921 94.7037C58.5921 94.7037 56.4872 97.3046 58.1324 98.3329C59.7777 99.3612 62.0217 97.1232 62.0217 97.1232C62.0217 97.1232 60.2071 99.6152 61.931 100.498C63.6549 101.381 65.8566 99.4519 65.8566 99.4519C65.8566 99.4519 65.7356 100.408 67.2297 100.492C69.3709 100.613 72.4255 97.1413 73.5929 94.9517C74.7603 92.7621 77.4096 83.8765 77.7967 82.5095L63.794 74.9003C63.794 74.9003 63.546 75.0817 63.1468 75.3962L60.8664 84.4028C60.8302 84.9653 59.2272 88.4312 58.6466 89.4292C57.34 91.6733 53.7471 93.5484 55.0597 94.9759Z" fill="#FFCCB3"/>
<path d="M58.6645 94.5523C61.8038 92.1752 62.7655 90.5964 64.1083 86.9672C64.1083 86.8946 64.2475 86.9188 64.2233 86.9975C63.2131 90.669 62.2937 92.8284 58.7492 94.7156C58.598 94.8305 58.5133 94.6914 58.6645 94.5523Z" fill="#263238"/>
<path d="M61.8645 97.1778C64.8889 94.4196 65.9655 92.7139 67.6773 89.0181C67.6773 88.9637 67.7922 89.0181 67.7681 89.0544C66.401 92.8228 65.4333 94.9519 62.0278 97.3049C61.8766 97.4137 61.7254 97.2988 61.8645 97.1778Z" fill="#263238"/>
<path d="M65.8684 99.3912C68.6206 96.512 69.8606 94.6853 71.0582 90.8868C71.063 90.8675 71.0753 90.8509 71.0923 90.8407C71.1093 90.8305 71.1297 90.8275 71.1489 90.8323C71.1682 90.8371 71.1847 90.8494 71.1949 90.8664C71.2052 90.8834 71.2082 90.9038 71.2034 90.923C70.3565 94.9152 68.8262 97.2016 65.9652 99.4638C65.7656 99.609 65.7051 99.5606 65.8684 99.3912Z" fill="#263238"/>
<path d="M64.0838 51.7378L74.7719 43.7353C74.7719 43.7353 69.2192 36.8398 63.3096 33.2469C57.4 29.654 57.0371 35.3156 58.8517 39.7311C60.6663 44.1467 64.0838 51.7378 64.0838 51.7378Z" fill="#5DBD6D"/>
<path d="M72.6365 42.217C69.7234 44.6922 66.6632 46.9888 63.4727 49.0943C63.4364 49.0943 63.3941 49.0581 63.4304 49.0278C64.2711 48.4592 68.7472 44.7937 72.5941 42.1444C72.6365 42.1141 72.6788 42.1807 72.6365 42.217Z" fill="#263238"/>
<path d="M62.2023 47.2132C61.5551 45.7555 60.6659 43.6324 59.928 42.2109C59.928 42.2109 59.8857 42.2109 59.8917 42.2109C60.182 43.0396 60.4966 43.8683 60.8534 44.6849C60.8294 44.6412 60.8032 44.5988 60.7748 44.5578C60.5087 44.1767 60.2304 43.8017 59.9341 43.4388C60.1579 43.8501 60.3998 44.2554 60.6599 44.6486C60.8232 44.8966 60.9986 45.1325 61.174 45.3684C61.3615 45.7978 61.7789 46.8624 61.9785 47.2918C62.293 48.0116 63.8294 52.0643 63.8959 52.0159C64.2708 51.7698 64.6304 51.5011 64.9726 51.2114C65.027 51.169 64.9726 51.0723 64.894 51.1146C64.7004 51.2779 64.2165 51.5985 64.1379 51.659C63.7931 50.9271 63.533 50.1529 63.1883 49.4028C62.8435 48.6528 62.535 47.9693 62.2023 47.2132Z" fill="#263238"/>
<path d="M57.7081 31.7769C57.5266 32.3818 54.339 36.2771 51.5021 36.011C50.5767 35.9142 50.867 30.8454 50.867 30.8454L50.8005 30.4704L49.9053 25.1596L56.2806 21.5304L57.2 21.0586C57.2 21.0586 57.3452 22.5284 57.5145 24.3551C57.5145 24.4398 57.5145 24.5245 57.5145 24.6152C57.5145 24.706 57.5145 24.8148 57.5448 24.9116C57.575 25.1899 57.5992 25.4681 57.6234 25.7463C57.6476 26.0246 57.6597 26.1637 57.6718 26.3875C57.6839 26.6113 57.6718 26.8291 57.7141 27.0529C57.8184 28.6259 57.8164 30.2041 57.7081 31.7769Z" fill="#FFCCB3"/>
<path d="M57.5145 24.3373C56.9025 25.7777 55.9852 27.0682 54.8261 28.1198C53.667 29.1714 52.2935 29.959 50.8005 30.4284L49.9053 25.1176L56.2806 21.4884L57.2 21.0166C57.2 21.0166 57.3452 22.5106 57.5145 24.3373Z" fill="#263238"/>
<path d="M43.258 15.7965C41.3345 25.0449 46.6634 27.2406 48.6534 27.6519C50.4681 28.0209 56.6801 29.0673 59.5411 20.0608C62.4021 11.0543 58.7124 7.2436 54.6114 6.14879C50.5104 5.05398 45.1754 6.54195 43.258 15.7965Z" fill="#FFCCB3"/>
<path d="M46.3792 13.6127C46.5968 13.6248 46.8149 13.6248 47.0325 13.6127C47.2627 13.6336 47.4936 13.5806 47.6918 13.4615C47.7457 13.4106 47.7814 13.3433 47.7935 13.2701C47.8055 13.1969 47.7931 13.1217 47.7583 13.0562C47.6694 12.9366 47.5503 12.8427 47.4132 12.7843C47.2761 12.7258 47.1259 12.7049 46.978 12.7236C46.6736 12.7165 46.3777 12.8245 46.1494 13.026C46.1072 13.0752 46.0793 13.1349 46.0685 13.1987C46.0577 13.2625 46.0644 13.3281 46.0881 13.3884C46.1117 13.4487 46.1513 13.5014 46.2025 13.5409C46.2538 13.5804 46.3149 13.6053 46.3792 13.6127Z" fill="#263238"/>
<path d="M52.7362 15.0338C52.5245 14.9673 52.337 14.8765 52.1314 14.7919C51.9062 14.7349 51.7049 14.6078 51.5567 14.4289C51.5216 14.363 51.5096 14.2873 51.5228 14.2137C51.536 14.1402 51.5735 14.0733 51.6293 14.0237C51.752 13.9409 51.8946 13.8922 52.0423 13.8826C52.1901 13.873 52.3377 13.9029 52.4701 13.9693C52.7598 14.0622 53.0038 14.2609 53.1536 14.5257C53.1833 14.588 53.1947 14.6575 53.1864 14.726C53.1781 14.7945 53.1504 14.8592 53.1065 14.9126C53.0627 14.9659 53.0046 15.0056 52.939 15.0271C52.8734 15.0486 52.8031 15.0509 52.7362 15.0338Z" fill="#263238"/>
<path d="M51.1032 17.0361C51.1032 17.0361 51.1455 17.0724 51.1395 17.0966C50.9943 17.7015 50.9399 18.4697 51.4721 18.7903C51.4721 18.7903 51.4721 18.8326 51.4721 18.8266C50.7826 18.5907 50.8673 17.6047 51.1032 17.0361Z" fill="#263238"/>
<path d="M51.7926 16.5159C52.8209 16.6308 52.5064 18.6874 51.5567 18.5725C50.6071 18.4575 50.9277 16.3828 51.7926 16.5159Z" fill="#263238"/>
<path d="M52.1978 16.6557C52.355 16.7948 52.5002 17.0307 52.7179 17.0851C52.9357 17.1396 53.1837 16.9581 53.3773 16.7766C53.3773 16.7766 53.4136 16.7766 53.4075 16.8069C53.3531 17.2001 53.1414 17.5811 52.7119 17.5751C52.2825 17.569 52.107 17.1819 52.0586 16.7706C52.0344 16.692 52.1131 16.5952 52.1978 16.6557Z" fill="#263238"/>
<path d="M47.2135 16.1469C47.2135 16.1166 47.1591 16.1469 47.1591 16.1953C47.0865 16.8001 46.893 17.5562 46.2881 17.6832V17.7195C47.0079 17.7256 47.2498 16.7638 47.2135 16.1469Z" fill="#263238"/>
<path d="M46.7541 15.3971C45.744 15.1733 45.3629 17.2118 46.3004 17.4235C47.238 17.6352 47.5888 15.5847 46.7541 15.3971Z" fill="#263238"/>
<path d="M46.2942 15.4515C46.1128 15.5301 45.9132 15.6995 45.7196 15.6753C45.5261 15.6511 45.3688 15.397 45.266 15.1611C45.266 15.1611 45.2357 15.1611 45.2297 15.1611C45.145 15.5543 45.1994 15.9837 45.5624 16.1289C45.9253 16.2741 46.2035 15.9717 46.3668 15.5966C46.3971 15.5422 46.3668 15.4212 46.2942 15.4515Z" fill="#263238"/>
<path d="M47.3589 19.1473C47.3589 19.1473 47.0685 20.0728 46.9959 20.5204C46.9959 20.5627 47.0927 20.599 47.2439 20.6353C47.6162 20.7693 48.0182 20.7978 48.4057 20.7178C48.7931 20.6377 49.151 20.4522 49.4396 20.1816C49.4759 20.1453 49.4396 20.0909 49.3852 20.109C48.7511 20.4054 48.038 20.4882 47.3528 20.3449C47.3528 20.2179 47.8972 18.7783 47.8246 18.7602C47.4727 18.7337 47.1187 18.754 46.7721 18.8207C47.3165 16.873 48.1633 15.0281 48.6775 13.0805C48.6831 13.0652 48.6824 13.0484 48.6756 13.0336C48.6688 13.0189 48.6564 13.0074 48.6412 13.0018C48.626 12.9962 48.6091 12.9969 48.5944 13.0037C48.5796 13.0105 48.5682 13.0229 48.5626 13.0381C47.5908 14.9862 46.8167 17.0267 46.252 19.1292C46.2157 19.3772 47.1895 19.1896 47.3589 19.1473Z" fill="#263238"/>
<path d="M50.2987 7.34066C50.0213 8.11792 49.9813 8.96009 50.1838 9.76014C50.9822 11.9437 53.5529 11.6352 54.3332 12.5425C55.1135 13.4498 54.6296 14.962 55.2828 15.8149C56.1962 16.9823 57.6116 16.698 57.7023 17.4359C57.793 18.1739 58.0592 20.5208 58.9544 20.9018C59.8496 21.2829 65.5233 6.38496 53.4501 5.7317C53.4501 5.7317 51.8653 4.90304 49.1797 5.94341C46.2219 7.09871 44.5464 11.6292 44.5464 11.6292C44.5464 11.6292 44.6129 11.5687 45.0605 11.2481C45.6654 10.7884 45.9557 10.3408 46.4154 10.0384C47.1352 9.58472 47.48 9.81458 48.23 9.37302C49.038 8.82774 49.7392 8.13889 50.2987 7.34066Z" fill="#263238"/>
<path d="M50.5463 6.69336C50.2968 7.27425 50.1201 7.88374 50.0201 8.50797C49.8803 9.10907 49.9097 9.7371 50.1047 10.3226C50.3681 10.8682 50.8221 11.2985 51.381 11.5323C51.9314 11.7985 52.5907 11.9194 53.1533 12.2219C53.4579 12.3791 53.7148 12.6151 53.8973 12.9054C54.0506 13.2045 54.1411 13.5318 54.1634 13.8671C54.1727 14.4773 54.3483 15.0734 54.6715 15.591C54.8538 15.8339 55.0867 16.0343 55.3541 16.1784C55.6214 16.3225 55.9168 16.4069 56.22 16.4257C56.8513 16.3821 57.4846 16.475 58.0769 16.6979C57.4718 16.5249 56.837 16.4816 56.2139 16.5709C55.8835 16.5639 55.5584 16.4857 55.2609 16.3416C54.9634 16.1976 54.7005 15.9911 54.4901 15.7362C54.1189 15.2017 53.909 14.5718 53.8852 13.9216C53.8589 13.6246 53.7768 13.3352 53.6432 13.0687C53.4815 12.8269 53.258 12.6327 52.996 12.5062C52.4698 12.2219 51.8347 12.0828 51.254 11.7985C50.9565 11.6556 50.6814 11.4702 50.4374 11.248C50.1852 11.0266 49.9919 10.746 49.8749 10.4315C49.6967 9.80269 49.6967 9.13674 49.8749 8.50797C50.0242 7.8781 50.2497 7.26875 50.5463 6.69336Z" fill="#263238"/>
<path d="M50.2624 7.21875C50.0877 7.78306 49.8396 8.32197 49.5244 8.82165C49.2076 9.34762 48.7426 9.76842 48.1877 10.0314C47.9099 10.1396 47.6222 10.2206 47.3288 10.2733C47.067 10.3325 46.8265 10.4622 46.6332 10.6484C46.4537 10.8875 46.2511 11.1083 46.0283 11.3077C45.7912 11.4932 45.5134 11.6196 45.2178 11.6766C45.4844 11.5685 45.7255 11.4057 45.9255 11.1988C46.1173 10.9827 46.2894 10.7499 46.4396 10.5032C46.6433 10.2567 46.9213 10.0827 47.232 10.0072C47.511 9.94875 47.7842 9.86576 48.0486 9.7592C48.5536 9.51457 48.987 9.14372 49.3067 8.68253C49.6589 8.2174 49.9782 7.72829 50.2624 7.21875Z" fill="#263238"/>
<path d="M57.0671 19.5893C57.0671 19.5893 59.5531 16.9823 60.7628 17.9077C61.9726 18.8332 59.8011 22.8314 58.1619 23.1762C57.9541 23.2341 57.7368 23.2495 57.5229 23.2214C57.309 23.1934 57.103 23.1224 56.9172 23.0129C56.7314 22.9033 56.5696 22.7574 56.4415 22.5838C56.3135 22.4102 56.2217 22.2126 56.1719 22.0027L57.0671 19.5893Z" fill="#FFCCB3"/>
<path d="M60.1096 19.0384C60.1096 19.0384 60.1096 19.0746 60.1096 19.0807C58.9483 19.3589 58.2225 20.2904 57.6902 21.2643C57.7698 21.1651 57.8701 21.0844 57.9841 21.0279C58.0981 20.9713 58.223 20.9402 58.3502 20.9368C58.4773 20.9333 58.6038 20.9576 58.7206 21.0079C58.8375 21.0582 58.942 21.1333 59.0269 21.228C59.0572 21.228 59.0269 21.2885 58.9907 21.2764C58.8085 21.186 58.6027 21.1549 58.402 21.1875C58.2013 21.22 58.0159 21.3146 57.8716 21.4578C57.627 21.6948 57.4099 21.9585 57.2244 22.2442C57.1579 22.3349 56.9946 22.2442 57.049 22.1474C57.2244 20.7501 58.5975 18.9355 60.1096 19.0384Z" fill="#263238"/>
<path d="M50.7945 31.2442L52.1313 35.5509L57.7445 30.7119L59.0752 32.5265C59.0752 32.5265 53.3289 40.4987 53.3229 40.1176L51.8954 36.3856L49.2158 38.6841L49.9235 32.4237L50.7945 31.2442Z" fill="#5DBD6D"/>
<path d="M49.3915 35.5456C49.5427 34.5174 49.6637 33.477 49.8633 32.4548C49.8633 32.4185 49.9298 32.4064 49.9359 32.4548C50.0629 33.4709 49.458 37.4086 49.3854 38.3583C49.5004 38.2615 51.8654 36.3441 51.8836 36.3804C52.2102 36.9852 53.2626 39.7011 53.3292 39.9491C54.2365 38.6789 57.7024 34.0879 58.773 32.9024C58.8033 32.8721 58.8577 32.9024 58.8335 32.9447C58.0109 34.2936 53.3897 40.4874 53.3534 40.4632C52.7904 39.1728 52.2938 37.8545 51.8654 36.5134C51.4541 36.9429 49.0467 39.1265 49.0527 38.9692C49.1048 37.8228 49.2178 36.68 49.3915 35.5456Z" fill="#263238"/>
</svg>
